<svg width="1483" height="119" viewBox="0 0 1483 119" fill="none" xmlns="http://www.w3.org/2000/svg">
<path d="M34.5565 62.1311L71.744 99.3186C72.0895 99.6642 72.4997 99.9382 72.9511 100.125C73.4025 100.312 73.8864 100.408 74.375 100.408C74.8636 100.408 75.3475 100.312 75.7989 100.125C76.2503 99.9382 76.6605 99.6642 77.006 99.3186C77.3515 98.9731 77.6256 98.563 77.8126 98.1115C77.9996 97.6601 78.0958 97.1763 78.0958 96.6876C78.0958 96.199 77.9996 95.7152 77.8126 95.2637C77.6256 94.8123 77.3515 94.4021 77.006 94.0566L42.4449 59.5001L77.006 24.9436C77.7038 24.2458 78.0958 23.2994 78.0958 22.3126C78.0958 21.3258 77.7038 20.3794 77.006 19.6816C76.3082 18.9838 75.3618 18.5918 74.375 18.5918C73.3882 18.5918 72.4418 18.9838 71.744 19.6816L34.5565 56.8691C34.2107 57.2145 33.9364 57.6246 33.7493 58.0761C33.5622 58.5275 33.4658 59.0114 33.4658 59.5001C33.4658 59.9888 33.5622 60.4727 33.7493 60.9242C33.9364 61.3756 34.2107 61.7858 34.5565 62.1311Z" fill="#4B4B4B"/>
<path d="M1448.44 62.1311L1411.26 99.3186C1410.91 99.6642 1410.5 99.9382 1410.05 100.125C1409.6 100.312 1409.11 100.408 1408.62 100.408C1408.14 100.408 1407.65 100.312 1407.2 100.125C1406.75 99.9382 1406.34 99.6642 1405.99 99.3186C1405.65 98.9731 1405.37 98.563 1405.19 98.1115C1405 97.6601 1404.9 97.1763 1404.9 96.6876C1404.9 96.199 1405 95.7152 1405.19 95.2637C1405.37 94.8123 1405.65 94.4021 1405.99 94.0566L1440.56 59.5001L1405.99 24.9436C1405.3 24.2458 1404.9 23.2994 1404.9 22.3126C1404.9 21.3258 1405.3 20.3794 1405.99 19.6816C1406.69 18.9838 1407.64 18.5918 1408.62 18.5918C1409.61 18.5918 1410.56 18.9838 1411.26 19.6816L1448.44 56.8691C1448.79 57.2145 1449.06 57.6246 1449.25 58.0761C1449.44 58.5275 1449.53 59.0114 1449.53 59.5001C1449.53 59.9888 1449.44 60.4727 1449.25 60.9242C1449.06 61.3756 1448.79 61.7858 1448.44 62.1311Z" fill="#4B4B4B"/>
</svg>
