<svg width="17" height="17" viewBox="0 0 17 17" fill="none" xmlns="http://www.w3.org/2000/svg">
<path d="M11.6876 15.4062C11.6876 15.5471 11.6316 15.6823 11.532 15.7819C11.4324 15.8815 11.2972 15.9375 11.1563 15.9375H5.84384C5.70294 15.9375 5.56782 15.8815 5.46819 15.7819C5.36856 15.6823 5.31259 15.5471 5.31259 15.4062C5.31259 15.2653 5.36856 15.1302 5.46819 15.0306C5.56782 14.931 5.70294 14.875 5.84384 14.875H11.1563C11.2972 14.875 11.4324 14.931 11.532 15.0306C11.6316 15.1302 11.6876 15.2653 11.6876 15.4062ZM14.3438 6.90624C14.3461 7.79186 14.1461 8.6663 13.7589 9.46282C13.3718 10.2593 12.8077 10.9569 12.1099 11.5022C11.9795 11.6022 11.8736 11.7307 11.8004 11.878C11.7272 12.0252 11.6886 12.1872 11.6876 12.3516V12.75C11.6876 13.0318 11.5756 13.302 11.3764 13.5013C11.1771 13.7005 10.9069 13.8125 10.6251 13.8125H6.37509C6.09329 13.8125 5.82304 13.7005 5.62379 13.5013C5.42453 13.302 5.31259 13.0318 5.31259 12.75V12.3516C5.31248 12.1891 5.27513 12.0289 5.20341 11.8831C5.13169 11.7374 5.02751 11.61 4.89888 11.5108C4.20281 10.9687 3.63918 10.2754 3.25066 9.48327C2.86214 8.69116 2.6589 7.82104 2.65634 6.93878C2.63907 3.77385 5.19704 1.13819 8.35931 1.06249C9.13848 1.04371 9.91354 1.18099 10.6389 1.46625C11.3642 1.75151 12.0251 2.17898 12.5828 2.7235C13.1404 3.26802 13.5835 3.9186 13.8859 4.63693C14.1884 5.35526 14.3441 6.12683 14.3438 6.90624ZM13.2813 6.90624C13.2815 6.26851 13.1541 5.63719 12.9067 5.04944C12.6592 4.46169 12.2966 3.92939 11.8403 3.48387C11.384 3.03834 10.8432 2.6886 10.2497 2.45523C9.65626 2.22186 9.02208 2.10958 8.38454 2.12499C5.7947 2.18608 3.70489 4.34229 3.71884 6.93214C3.72126 7.6537 3.88777 8.36526 4.20576 9.01297C4.52375 9.66069 4.9849 10.2276 5.55431 10.6708C5.81026 10.8698 6.0173 11.1247 6.15957 11.416C6.30183 11.7073 6.37555 12.0273 6.37509 12.3516V12.75H10.6251V12.3516C10.6258 12.0264 10.7008 11.7058 10.8443 11.414C10.9878 11.1223 11.1961 10.8672 11.4532 10.6682C12.0243 10.2218 12.486 9.65083 12.8028 8.99885C13.1196 8.34687 13.2833 7.63112 13.2813 6.90624ZM12.2115 6.286C12.0738 5.51655 11.7036 4.80778 11.1508 4.2551C10.598 3.70242 9.88914 3.33238 9.11966 3.19479C9.05085 3.18319 8.98044 3.18526 8.91243 3.20088C8.84442 3.21649 8.78016 3.24535 8.7233 3.2858C8.66645 3.32625 8.61812 3.37751 8.58107 3.43663C8.54403 3.49576 8.51899 3.56161 8.50739 3.63042C8.49579 3.69922 8.49786 3.76964 8.51348 3.83765C8.52909 3.90565 8.55795 3.96992 8.5984 4.02677C8.63885 4.08362 8.6901 4.13195 8.74923 4.169C8.80836 4.20605 8.87421 4.23108 8.94302 4.24268C10.0434 4.42796 10.977 5.36163 11.1636 6.46397C11.1847 6.5877 11.2488 6.69999 11.3447 6.78095C11.4406 6.8619 11.5621 6.90628 11.6876 6.90624C11.7176 6.90606 11.7476 6.90362 11.7772 6.89893C11.9161 6.87523 12.0399 6.79734 12.1213 6.6824C12.2027 6.56745 12.2352 6.42487 12.2115 6.286Z" fill="black"/>
</svg>
