<svg width="1876" height="314" viewBox="0 0 1876 314" fill="none" xmlns="http://www.w3.org/2000/svg">
<path d="M8.04663e-07 320.4V5.39988H60.75V273.15H198.9V320.4H8.04663e-07ZM221.879 320.4L321.779 5.39988H421.229L520.679 320.4H456.329L372.629 40.9499H370.829L285.329 320.4H221.879ZM272.729 229.95L288.479 182.7H449.129L464.879 229.95H272.729ZM580.361 320.4L507.461 5.39988H571.811L627.611 282.15H629.861L692.411 5.39988H765.311L831.461 282.15H833.261L885.911 5.39988H950.261L878.261 320.4H788.711L729.311 71.0999H727.511L669.461 320.4H580.361ZM1094 325.8C1071.2 325.8 1050.8 321.9 1032.8 314.1C1015.1 306.3 1001.15 294.9 990.948 279.9C980.748 264.9 975.348 246.75 974.748 225.45H1039.1C1039.4 234.75 1041.65 243.15 1045.85 250.65C1050.35 258.15 1056.65 264.15 1064.75 268.65C1072.85 272.85 1082.6 274.95 1094 274.95C1103.3 274.95 1111.55 273.6 1118.75 270.9C1125.95 267.9 1131.5 263.7 1135.4 258.3C1139.6 252.6 1141.7 245.55 1141.7 237.15C1141.7 228.15 1139.45 220.65 1134.95 214.65C1130.75 208.65 1124.75 203.55 1116.95 199.35C1109.15 194.85 1100.3 190.95 1090.4 187.65C1080.8 184.05 1070.75 180.45 1060.25 176.85C1034.75 168.15 1015.25 156.9 1001.75 143.1C988.548 129.3 981.948 111.15 981.948 88.6499C981.948 70.3499 986.448 54.5999 995.448 41.3999C1004.45 28.1999 1017.05 17.9999 1033.25 10.7999C1049.45 3.5999 1067.9 -0.000103235 1088.6 -0.000103235C1109.9 -0.000103235 1128.65 3.74989 1144.85 11.2499C1161.05 18.4499 1173.8 28.9499 1183.1 42.7499C1192.4 56.5499 1197.35 72.7499 1197.95 91.3499H1132.7C1132.4 83.2499 1130.3 76.1999 1126.4 70.1999C1122.8 64.1999 1117.55 59.3999 1110.65 55.7999C1104.05 52.1999 1096.25 50.3999 1087.25 50.3999C1079.45 50.0999 1072.25 51.2999 1065.65 53.9999C1059.35 56.3999 1054.4 60.1499 1050.8 65.2499C1047.2 70.0499 1045.4 76.4999 1045.4 84.5999C1045.4 92.0999 1047.05 98.3999 1050.35 103.5C1053.95 108.6 1058.9 113.1 1065.2 117C1071.8 120.6 1079.45 124.2 1088.15 127.8C1097.15 131.1 1107.2 134.7 1118.3 138.6C1134.2 144 1148.75 150.45 1161.95 157.95C1175.15 165.15 1185.65 174.6 1193.45 186.3C1201.55 198 1205.6 213.15 1205.6 231.75C1205.6 248.55 1201.25 264.15 1192.55 278.55C1184.15 292.65 1171.7 304.05 1155.2 312.75C1138.7 321.45 1118.3 325.8 1094 325.8ZM1342.66 325.8C1321.96 325.8 1303.96 321.9 1288.66 314.1C1273.36 306.3 1261.36 294.9 1252.66 279.9C1244.26 264.6 1240.06 246.15 1240.06 224.55H1300.81C1300.81 234.15 1302.16 242.55 1304.86 249.75C1307.86 256.65 1312.36 262.05 1318.36 265.95C1324.36 269.55 1331.86 271.35 1340.86 271.35C1349.86 271.35 1357.06 269.7 1362.46 266.4C1368.16 262.8 1372.36 257.85 1375.06 251.55C1377.76 244.95 1379.11 237.15 1379.11 228.15V5.39988H1439.86V228.15C1439.86 259.65 1431.01 283.8 1413.31 300.6C1395.91 317.4 1372.36 325.8 1342.66 325.8ZM1494.27 320.4V5.39988H1555.02V320.4H1494.27ZM1609.34 320.4V5.39988H1684.49L1813.19 238.95H1814.99V5.39988H1875.74V320.4H1800.59L1671.89 87.2999H1670.09V320.4H1609.34Z" fill="#D3D3D3" fill-opacity="0.16"/>
</svg>
