<svg width="281" height="75" viewBox="0 0 281 75" fill="none" xmlns="http://www.w3.org/2000/svg">
<rect width="280.93" height="75" rx="10" fill="#FF9800"/>
<path d="M95.2177 31.92H115.018V34.824H95.2177V31.92ZM94.1377 46.32H116.05V49.248H94.1377V46.32ZM98.2177 36.216L101.122 35.52C101.426 36.528 101.714 37.6 101.986 38.736C102.274 39.856 102.538 40.96 102.778 42.048C103.018 43.12 103.202 44.088 103.33 44.952L100.234 45.744C100.138 44.88 99.9777 43.904 99.7537 42.816C99.5457 41.712 99.3057 40.592 99.0337 39.456C98.7617 38.304 98.4897 37.224 98.2177 36.216ZM109.066 35.592L112.306 36.216C112.05 37.224 111.77 38.248 111.466 39.288C111.178 40.312 110.866 41.32 110.53 42.312C110.21 43.304 109.882 44.24 109.546 45.12C109.226 46 108.906 46.8 108.586 47.52L105.754 46.824C106.074 46.104 106.386 45.288 106.69 44.376C107.01 43.448 107.322 42.48 107.626 41.472C107.93 40.448 108.202 39.44 108.442 38.448C108.698 37.44 108.906 36.488 109.066 35.592ZM102.826 28.056L105.706 27.336C105.962 27.944 106.21 28.608 106.45 29.328C106.69 30.048 106.874 30.664 107.002 31.176L104.002 32.04C103.89 31.512 103.722 30.872 103.498 30.12C103.29 29.368 103.066 28.68 102.826 28.056ZM122.25 33.432H129.546V35.976H122.25V33.432ZM122.178 28.824H131.442V40.752H122.178V38.184H128.538V31.392H122.178V28.824ZM121.266 49.632L120.978 47.064L122.106 46.104L128.946 44.136C129.042 44.52 129.178 44.952 129.354 45.432C129.53 45.896 129.682 46.28 129.81 46.584C128.13 47.128 126.762 47.568 125.706 47.904C124.666 48.24 123.85 48.512 123.258 48.72C122.682 48.928 122.25 49.096 121.962 49.224C121.69 49.368 121.458 49.504 121.266 49.632ZM126.282 42.552L128.778 41.352C129.178 41.992 129.594 42.696 130.026 43.464C130.458 44.216 130.858 44.96 131.226 45.696C131.594 46.416 131.882 47.064 132.09 47.64L129.426 49.056C129.234 48.48 128.962 47.824 128.61 47.088C128.274 46.336 127.898 45.568 127.482 44.784C127.082 43.984 126.682 43.24 126.282 42.552ZM121.266 49.632C121.218 49.36 121.13 49.032 121.002 48.648C120.89 48.28 120.754 47.92 120.594 47.568C120.45 47.216 120.298 46.92 120.138 46.68C120.41 46.552 120.666 46.36 120.906 46.104C121.146 45.848 121.266 45.488 121.266 45.024V28.824H124.218V47.424C124.218 47.424 124.114 47.464 123.906 47.544C123.714 47.624 123.474 47.736 123.186 47.88C122.898 48.024 122.602 48.192 122.298 48.384C122.01 48.576 121.762 48.776 121.554 48.984C121.362 49.192 121.266 49.408 121.266 49.632ZM138.57 28.992H141.402V42.864C141.402 43.504 141.33 44.032 141.186 44.448C141.058 44.848 140.794 45.168 140.394 45.408C139.994 45.632 139.514 45.768 138.954 45.816C138.394 45.864 137.722 45.888 136.938 45.888C136.89 45.504 136.794 45.048 136.65 44.52C136.506 43.992 136.338 43.544 136.146 43.176C136.578 43.192 136.986 43.208 137.37 43.224C137.77 43.224 138.042 43.216 138.186 43.2C138.33 43.184 138.426 43.152 138.474 43.104C138.538 43.056 138.57 42.96 138.57 42.816V28.992ZM132.786 28.992H139.938V31.632H135.666V50.16H132.786V28.992ZM155.69 36.072H158.714V46.848C158.714 47.664 158.602 48.288 158.378 48.72C158.154 49.152 157.738 49.48 157.13 49.704C156.538 49.912 155.81 50.048 154.946 50.112C154.082 50.176 153.066 50.2 151.898 50.184C151.818 49.768 151.658 49.272 151.418 48.696C151.194 48.136 150.97 47.664 150.746 47.28C151.322 47.296 151.898 47.312 152.474 47.328C153.05 47.328 153.562 47.328 154.01 47.328C154.474 47.328 154.794 47.328 154.97 47.328C155.242 47.328 155.426 47.288 155.522 47.208C155.634 47.128 155.69 46.984 155.69 46.776V36.072ZM147.338 29.28H164.09V32.136H147.338V29.28ZM163.25 29.28H164.042L164.69 29.112L166.994 30.84C166.178 31.704 165.25 32.592 164.21 33.504C163.17 34.4 162.09 35.248 160.97 36.048C159.85 36.848 158.73 37.544 157.61 38.136C157.466 37.928 157.274 37.696 157.034 37.44C156.81 37.184 156.578 36.936 156.338 36.696C156.098 36.44 155.882 36.232 155.69 36.072C156.41 35.704 157.138 35.264 157.874 34.752C158.626 34.24 159.346 33.704 160.034 33.144C160.722 32.584 161.338 32.032 161.882 31.488C162.442 30.944 162.898 30.448 163.25 30V29.28ZM174.49 33.792H181.162V35.904H174.49V33.792ZM174.49 37.704H181.162V39.744H174.49V37.704ZM174.49 41.736H181.162V43.848H174.49V41.736ZM184.906 39H193.93V41.424H184.906V39ZM175.69 29.832H179.482V32.016H175.69V29.832ZM183.082 28.824H192.01V31.2H183.082V28.824ZM183.106 43.608H194.41V46.08H183.106V43.608ZM187.57 36.84H190.306V50.064H187.57V36.84ZM177.106 34.896H179.002V42.528H177.106V34.896ZM191.242 28.824H193.786C193.786 28.824 193.778 28.944 193.762 29.184C193.762 29.408 193.754 29.6 193.738 29.76C193.706 31.024 193.658 32.072 193.594 32.904C193.53 33.736 193.442 34.392 193.33 34.872C193.218 35.352 193.074 35.696 192.898 35.904C192.706 36.144 192.49 36.32 192.25 36.432C192.01 36.544 191.738 36.632 191.434 36.696C191.162 36.728 190.81 36.752 190.378 36.768C189.946 36.768 189.482 36.76 188.986 36.744C188.97 36.376 188.906 35.976 188.794 35.544C188.682 35.096 188.53 34.72 188.338 34.416C188.722 34.448 189.066 34.472 189.37 34.488C189.674 34.504 189.906 34.512 190.066 34.512C190.21 34.512 190.33 34.504 190.426 34.488C190.538 34.456 190.634 34.384 190.714 34.272C190.81 34.16 190.89 33.928 190.954 33.576C191.018 33.208 191.074 32.672 191.122 31.968C191.17 31.264 191.21 30.336 191.242 29.184V28.824ZM184.402 37.008L186.754 37.488C186.546 38.576 186.25 39.64 185.866 40.68C185.498 41.72 185.082 42.592 184.618 43.296C184.458 43.184 184.25 43.056 183.994 42.912C183.738 42.768 183.474 42.632 183.202 42.504C182.93 42.376 182.698 42.272 182.506 42.192C182.97 41.552 183.362 40.768 183.682 39.84C184.002 38.912 184.242 37.968 184.402 37.008ZM175.114 27.576L177.682 28.152C177.378 29.24 177.018 30.312 176.602 31.368C176.186 32.424 175.722 33.408 175.21 34.32C174.714 35.232 174.178 36.032 173.602 36.72C173.458 36.576 173.258 36.4 173.002 36.192C172.746 35.968 172.49 35.752 172.234 35.544C171.978 35.32 171.746 35.152 171.538 35.04C172.354 34.144 173.074 33.04 173.698 31.728C174.322 30.4 174.794 29.016 175.114 27.576ZM173.434 33.792H175.738V40.152C175.738 40.92 175.706 41.744 175.642 42.624C175.594 43.504 175.498 44.4 175.354 45.312C175.226 46.208 175.026 47.08 174.754 47.928C174.482 48.76 174.122 49.52 173.674 50.208C173.546 50.064 173.354 49.904 173.098 49.728C172.858 49.568 172.602 49.408 172.33 49.248C172.074 49.104 171.85 48.992 171.658 48.912C172.202 48.08 172.602 47.16 172.858 46.152C173.114 45.128 173.274 44.096 173.338 43.056C173.402 42 173.434 41.024 173.434 40.128V33.792ZM180.37 33.792H182.746V47.376C182.746 47.952 182.682 48.424 182.554 48.792C182.426 49.16 182.178 49.448 181.81 49.656C181.442 49.864 181.002 49.992 180.49 50.04C179.978 50.104 179.346 50.136 178.594 50.136C178.562 49.784 178.458 49.368 178.282 48.888C178.122 48.408 177.954 48.008 177.778 47.688C178.258 47.704 178.706 47.72 179.122 47.736C179.538 47.736 179.826 47.736 179.986 47.736C180.13 47.736 180.226 47.712 180.274 47.664C180.338 47.6 180.37 47.488 180.37 47.328V33.792ZM185.986 29.616H188.554C188.458 30.784 188.266 31.864 187.978 32.856C187.706 33.832 187.25 34.704 186.61 35.472C185.97 36.24 185.058 36.888 183.874 37.416C183.73 37.112 183.506 36.76 183.202 36.36C182.914 35.96 182.634 35.656 182.362 35.448C183.322 35.048 184.042 34.56 184.522 33.984C185.018 33.408 185.362 32.752 185.554 32.016C185.762 31.28 185.906 30.48 185.986 29.616ZM178.786 29.832H179.338L179.698 29.736L181.354 30.744C181.082 31.512 180.738 32.328 180.322 33.192C179.906 34.04 179.514 34.768 179.146 35.376C178.906 35.2 178.61 35.008 178.258 34.8C177.922 34.592 177.626 34.424 177.37 34.296C177.562 33.912 177.746 33.488 177.922 33.024C178.114 32.544 178.282 32.064 178.426 31.584C178.586 31.088 178.706 30.656 178.786 30.288V29.832Z" fill="white"/>
</svg>
