<svg width="1477" height="119" viewBox="0 0 1477 119" fill="none" xmlns="http://www.w3.org/2000/svg">
<path d="M34.5565 62.131L71.744 99.3185C72.0895 99.664 72.4997 99.9381 72.9511 100.125C73.4025 100.312 73.8864 100.408 74.375 100.408C74.8636 100.408 75.3475 100.312 75.7989 100.125C76.2503 99.9381 76.6605 99.664 77.006 99.3185C77.3515 98.973 77.6256 98.5628 77.8126 98.1114C77.9996 97.66 78.0958 97.1761 78.0958 96.6875C78.0958 96.1989 77.9996 95.715 77.8126 95.2636C77.6256 94.8122 77.3515 94.402 77.006 94.0565L42.4449 59.5L77.006 24.9435C77.7038 24.2457 78.0958 23.2993 78.0958 22.3125C78.0958 21.3257 77.7038 20.3793 77.006 19.6815C76.3082 18.9837 75.3618 18.5917 74.375 18.5917C73.3882 18.5917 72.4418 18.9837 71.744 19.6815L34.5565 56.869C34.2107 57.2144 33.9364 57.6245 33.7493 58.0759C33.5622 58.5274 33.4658 59.0113 33.4658 59.5C33.4658 59.9887 33.5622 60.4726 33.7493 60.9241C33.9364 61.3755 34.2107 61.7856 34.5565 62.131Z" fill="#4B4B4B"/>
<path d="M1442.44 62.131L1405.26 99.3185C1404.91 99.664 1404.5 99.9381 1404.05 100.125C1403.6 100.312 1403.11 100.408 1402.62 100.408C1402.14 100.408 1401.65 100.312 1401.2 100.125C1400.75 99.9381 1400.34 99.664 1399.99 99.3185C1399.65 98.973 1399.37 98.5628 1399.19 98.1114C1399 97.66 1398.9 97.1761 1398.9 96.6875C1398.9 96.1989 1399 95.715 1399.19 95.2636C1399.37 94.8122 1399.65 94.402 1399.99 94.0565L1434.56 59.5L1399.99 24.9435C1399.3 24.2457 1398.9 23.2993 1398.9 22.3125C1398.9 21.3257 1399.3 20.3793 1399.99 19.6815C1400.69 18.9837 1401.64 18.5917 1402.62 18.5917C1403.61 18.5917 1404.56 18.9837 1405.26 19.6815L1442.44 56.869C1442.79 57.2144 1443.06 57.6245 1443.25 58.0759C1443.44 58.5274 1443.53 59.0113 1443.53 59.5C1443.53 59.9887 1443.44 60.4726 1443.25 60.9241C1443.06 61.3755 1442.79 61.7856 1442.44 62.131Z" fill="#4B4B4B"/>
</svg>
