<svg width="81" height="85" viewBox="0 0 81 85" fill="none" xmlns="http://www.w3.org/2000/svg">
<path d="M1.6961 41.1648L7.48537 35.1054C8.46723 34.0789 9.76873 33.4558 11.1528 33.3494C12.5368 33.243 13.9113 33.6606 15.0259 34.526L32.9871 15.7269C32.1598 14.5608 31.7603 13.1224 31.8612 11.6738C31.9621 10.2252 32.5569 8.86273 33.5371 7.83458L39.3264 1.77523C39.864 1.21242 40.5022 0.76597 41.2047 0.461373C41.9072 0.156776 42.6601 0 43.4205 0C44.1808 0 44.9338 0.156776 45.6362 0.461373C46.3387 0.76597 46.977 1.21242 47.5146 1.77523L70.6716 26.0126C71.2094 26.5753 71.6359 27.2433 71.9269 27.9786C72.218 28.7138 72.3677 29.5019 72.3677 30.2977C72.3677 31.0936 72.218 31.8816 71.9269 32.6169C71.6359 33.3521 71.2094 34.0201 70.6716 34.5828L64.8824 40.6422C63.9003 41.6671 62.5992 42.289 61.216 42.3946C59.8328 42.5003 58.4593 42.0827 57.3455 41.2178L54.7511 43.9331L78.4075 68.6932C79.9792 70.4922 80.8273 72.8565 80.7752 75.2936C80.7231 77.7307 79.7749 80.0529 78.128 81.7766C76.4811 83.5003 74.2624 84.4928 71.934 84.5473C69.6055 84.6018 67.3466 83.7141 65.6277 82.0692L41.975 57.3092L39.3806 60.0207C40.2079 61.1868 40.6075 62.6252 40.5065 64.0738C40.4056 65.5224 39.8109 66.8849 38.8307 67.913L33.0414 73.9724C32.5038 74.5352 31.8655 74.9816 31.163 75.2862C30.4606 75.5908 29.7076 75.7476 28.9473 75.7476C28.1869 75.7476 27.434 75.5908 26.7315 75.2862C26.029 74.9816 25.3908 74.5352 24.8532 73.9724L1.6961 49.735C1.15838 49.1723 0.731827 48.5043 0.440806 47.769C0.149785 47.0338 -2.50702e-06 46.2457 -2.50702e-06 45.4499C-2.50702e-06 44.654 0.149785 43.866 0.440806 43.1307C0.731827 42.3955 1.15838 41.7275 1.6961 41.1648ZM60.7901 36.359L66.5793 30.2996L43.4223 6.06222L37.633 12.1216L60.7901 36.359ZM69.72 77.7822C70.3302 78.417 71.1555 78.7733 72.0158 78.7733C72.8761 78.7733 73.7015 78.417 74.3116 77.7822C74.9171 77.1437 75.2568 76.2807 75.2568 75.3812C75.2568 74.4816 74.9171 73.6186 74.3116 72.9802L50.6589 48.2201L46.0672 53.0222L69.72 77.7822ZM53.1917 36.9876L37.0324 20.0745L19.1797 38.76L35.3354 55.6731L53.1917 36.9876ZM28.9491 69.6854L34.7384 63.626L33.291 62.1112L13.0286 40.9035L11.5813 39.3886L5.79201 45.448L28.9491 69.6854Z" fill="black"/>
</svg>
