<svg width="105" height="80" viewBox="0 0 105 80" fill="none" xmlns="http://www.w3.org/2000/svg">
<path d="M3.26247 32.607H14.6486L34.0197 2.98043C34.6067 2.08529 35.3706 1.35147 36.2527 0.835323C37.1349 0.319173 38.1118 0.0344204 39.1085 0.00293084C40.1051 -0.0285587 41.095 0.194053 42.0022 0.653671C42.9093 1.11329 43.7095 1.79769 44.3414 2.65431L49.5818 9.40307L49.6634 9.50724C49.967 9.93091 50.3528 10.2731 50.792 10.5082C51.2311 10.7434 51.7124 10.8655 52.2 10.8655C52.6875 10.8655 53.1688 10.7434 53.608 10.5082C54.0471 10.2731 54.4329 9.93091 54.7366 9.50724L54.8181 9.40307L60.0585 2.65431C60.6904 1.79769 61.4906 1.11329 62.3978 0.653671C63.3049 0.194053 64.2948 -0.0285587 65.2915 0.00293084C66.2881 0.0344204 67.265 0.319173 68.1472 0.835323C69.0293 1.35147 69.7932 2.08529 70.3802 2.98043L89.7513 32.607H101.137C102.003 32.607 102.833 32.9888 103.444 33.6683C104.056 34.3478 104.4 35.2695 104.4 36.2305C104.4 37.1915 104.056 38.1132 103.444 38.7927C102.833 39.4722 102.003 39.854 101.137 39.854H3.26247C2.39719 39.854 1.56737 39.4722 0.955528 38.7927C0.343689 38.1132 -3.05176e-05 37.1915 -3.05176e-05 36.2305C-3.05176e-05 35.2695 0.343689 34.3478 0.955528 33.6683C1.56737 32.9888 2.39719 32.607 3.26247 32.607ZM65.1113 7.24256L65.0338 7.34673L59.7934 14.091C58.8757 15.3443 57.7179 16.3548 56.4044 17.0488C55.0909 17.7427 53.6546 18.1028 52.2 18.1028C50.7454 18.1028 49.3091 17.7427 47.9955 17.0488C46.682 16.3548 45.5243 15.3443 44.6065 14.091L39.3661 7.34673C39.3416 7.3105 39.3253 7.27879 39.2968 7.24256L22.7151 32.607H81.6889L65.1113 7.24256ZM30.9937 47.101C34.6045 47.1018 38.0883 48.5804 40.7794 51.2542C43.4705 53.928 45.18 57.6095 45.5812 61.5949H58.8188C59.2209 57.6131 60.929 53.9352 63.617 51.2629C66.3051 48.5906 69.7849 47.1112 73.3925 47.1068C77.0001 47.1024 80.4828 48.5735 83.1761 51.2392C85.8694 53.905 87.5847 57.5788 87.9947 61.5596C88.4046 65.5404 87.4805 69.5495 85.3987 72.8219C83.3169 76.0942 80.2232 78.4007 76.7079 79.3011C73.1926 80.2016 69.5018 79.633 66.3399 77.7038C63.178 75.7747 60.7663 72.62 59.5651 68.8419H44.8349C43.9377 71.6603 42.3602 74.1506 40.2747 76.0405C38.1893 77.9304 35.6762 79.1471 33.0101 79.5578C30.3441 79.9685 27.6277 79.5573 25.1579 78.3691C22.6881 77.1809 20.5599 75.2614 19.0059 72.8206C17.452 70.3797 16.5321 67.5114 16.3468 64.5291C16.1616 61.5468 16.718 58.5654 17.9554 55.9106C19.1928 53.2558 21.0634 51.03 23.3629 49.4763C25.6624 47.9226 28.3022 47.1009 30.9937 47.101ZM73.4062 72.4654C75.0194 72.4654 76.5963 71.9341 77.9376 70.9388C79.2789 69.9434 80.3243 68.5286 80.9416 66.8733C81.5589 65.2181 81.7205 63.3966 81.4057 61.6394C81.091 59.8822 80.3142 58.2681 79.1736 57.0012C78.0329 55.7343 76.5796 54.8716 74.9974 54.522C73.4153 54.1725 71.7753 54.3519 70.285 55.0375C68.7946 55.7231 67.5208 56.8842 66.6245 58.3739C65.7283 59.8636 65.25 61.615 65.25 63.4067C65.25 64.5963 65.4609 65.7743 65.8708 66.8733C66.2807 67.9724 66.8815 68.971 67.6389 69.8122C68.3963 70.6534 69.2954 71.3206 70.285 71.7759C71.2745 72.2311 72.3351 72.4654 73.4062 72.4654ZM30.9937 72.4654C32.6069 72.4654 34.1838 71.9341 35.5251 70.9388C36.8664 69.9434 37.9118 68.5286 38.5291 66.8733C39.1464 65.2181 39.308 63.3966 38.9932 61.6394C38.6785 59.8822 37.9017 58.2681 36.7611 57.0012C35.6204 55.7343 34.1671 54.8716 32.5849 54.522C31.0028 54.1725 29.3628 54.3519 27.8725 55.0375C26.3821 55.7231 25.1083 56.8842 24.212 58.3739C23.3158 59.8636 22.8375 61.615 22.8375 63.4067C22.8375 65.8092 23.6968 68.1133 25.2264 69.8122C26.756 71.511 28.8306 72.4654 30.9937 72.4654Z" fill="black"/>
</svg>
