<svg width="20" height="20" viewBox="0 0 20 20" fill="none" xmlns="http://www.w3.org/2000/svg">
<path d="M9.75 0C7.82164 0 5.93657 0.571828 4.33319 1.64317C2.72982 2.71451 1.48013 4.23726 0.742179 6.01884C0.00422452 7.80042 -0.188858 9.76082 0.187348 11.6521C0.563554 13.5434 1.49215 15.2807 2.85571 16.6443C4.21928 18.0079 5.95656 18.9365 7.84787 19.3127C9.73919 19.6889 11.6996 19.4958 13.4812 18.7578C15.2627 18.0199 16.7855 16.7702 17.8568 15.1668C18.9282 13.5634 19.5 11.6784 19.5 9.75C19.4973 7.16498 18.4692 4.68661 16.6413 2.85872C14.8134 1.03084 12.335 0.00272983 9.75 0ZM9.75 18C8.11831 18 6.52326 17.5161 5.16655 16.6096C3.80984 15.7031 2.75242 14.4146 2.128 12.9071C1.50358 11.3996 1.3402 9.74085 1.65853 8.1405C1.97685 6.54016 2.76259 5.07015 3.91637 3.91637C5.07016 2.76259 6.54017 1.97685 8.14051 1.65852C9.74085 1.34019 11.3997 1.50357 12.9071 2.12799C14.4146 2.75242 15.7031 3.80984 16.6096 5.16655C17.5161 6.52325 18 8.1183 18 9.75C17.9975 11.9373 17.1275 14.0343 15.5809 15.5809C14.0343 17.1275 11.9373 17.9975 9.75 18ZM11.7806 6.53063L8.56032 9.75L11.7806 12.9694C11.8503 13.0391 11.9056 13.1218 11.9433 13.2128C11.981 13.3039 12.0004 13.4015 12.0004 13.5C12.0004 13.5985 11.981 13.6961 11.9433 13.7872C11.9056 13.8782 11.8503 13.9609 11.7806 14.0306C11.7109 14.1003 11.6282 14.1556 11.5372 14.1933C11.4461 14.231 11.3486 14.2504 11.25 14.2504C11.1515 14.2504 11.0539 14.231 10.9628 14.1933C10.8718 14.1556 10.7891 14.1003 10.7194 14.0306L6.96938 10.2806C6.89965 10.211 6.84433 10.1283 6.80658 10.0372C6.76884 9.94616 6.74941 9.84856 6.74941 9.75C6.74941 9.65144 6.76884 9.55384 6.80658 9.4628C6.84433 9.37175 6.89965 9.28903 6.96938 9.21937L10.7194 5.46937C10.7891 5.39969 10.8718 5.34442 10.9628 5.3067C11.0539 5.26899 11.1515 5.24958 11.25 5.24958C11.3486 5.24958 11.4461 5.26899 11.5372 5.3067C11.6282 5.34442 11.7109 5.39969 11.7806 5.46937C11.8503 5.53906 11.9056 5.62178 11.9433 5.71283C11.981 5.80387 12.0004 5.90145 12.0004 6C12.0004 6.09855 11.981 6.19613 11.9433 6.28717C11.9056 6.37822 11.8503 6.46094 11.7806 6.53063Z" fill="black"/>
</svg>
