<svg width="32" height="37" viewBox="0 0 32 37" fill="none" xmlns="http://www.w3.org/2000/svg">
<path d="M28.2575 19.5328C28.3784 19.6693 28.4744 19.8314 28.5398 20.0098C28.6053 20.1882 28.639 20.3793 28.639 20.5724C28.639 20.7655 28.6053 20.9567 28.5398 21.1351C28.4744 21.3135 28.3784 21.4755 28.2575 21.6121C28.1365 21.7486 27.993 21.8569 27.8349 21.9308C27.6769 22.0047 27.5075 22.0427 27.3365 22.0427C27.1655 22.0427 26.9961 22.0047 26.8381 21.9308C26.6801 21.8569 26.5365 21.7486 26.4155 21.6121L16.9226 10.8942V35.267C16.9226 35.6567 16.7855 36.0305 16.5413 36.3061C16.2972 36.5817 15.9661 36.7365 15.6209 36.7365C15.2756 36.7365 14.9445 36.5817 14.7004 36.3061C14.4563 36.0305 14.3191 35.6567 14.3191 35.267V10.8942L4.8262 21.6121C4.70525 21.7486 4.56167 21.8569 4.40365 21.9308C4.24562 22.0047 4.07626 22.0427 3.90522 22.0427C3.73417 22.0427 3.56481 22.0047 3.40678 21.9308C3.24876 21.8569 3.10518 21.7486 2.98424 21.6121C2.86329 21.4755 2.76735 21.3135 2.7019 21.1351C2.63644 20.9567 2.60275 20.7655 2.60275 20.5724C2.60275 20.3793 2.63644 20.1882 2.7019 20.0098C2.76735 19.8314 2.86329 19.6693 2.98424 19.5328L14.6999 6.30765C14.8208 6.17103 14.9643 6.06264 15.1224 5.98869C15.2804 5.91474 15.4498 5.87668 15.6209 5.87668C15.7919 5.87668 15.9613 5.91474 16.1193 5.98869C16.2774 6.06264 16.4209 6.17103 16.5418 6.30765L28.2575 19.5328ZM29.94 0H1.30174C0.956496 0 0.625394 0.154818 0.381271 0.430395C0.137147 0.705972 0 1.07973 0 1.46946C0 1.85918 0.137147 2.23295 0.381271 2.50852C0.625394 2.7841 0.956496 2.93892 1.30174 2.93892H29.94C30.2852 2.93892 30.6163 2.7841 30.8605 2.50852C31.1046 2.23295 31.2417 1.85918 31.2417 1.46946C31.2417 1.07973 31.1046 0.705972 30.8605 0.430395C30.6163 0.154818 30.2852 0 29.94 0Z" fill="#505050"/>
</svg>
