<svg width="36" height="34" viewBox="0 0 36 34" fill="none" xmlns="http://www.w3.org/2000/svg">
<path fill-rule="evenodd" clip-rule="evenodd" d="M17.7563 0C12.9325 0 12.3318 0.0193127 10.4348 0.102087C3.98333 0.378003 0.402476 3.71382 0.106538 9.72879C0.0207157 11.4974 0 12.0603 0 16.5549C0 21.0524 0.0207157 21.6152 0.106538 23.3811C0.402476 29.3933 3.98333 32.7346 10.4348 33.0106C12.3318 33.0906 12.9325 33.1099 17.7563 33.1099C22.5801 33.1099 23.1838 33.0906 25.0808 33.0106C31.5204 32.7346 35.1161 29.3988 35.4061 23.3811C35.4919 21.6152 35.5126 21.0524 35.5126 16.5549C35.5126 12.0603 35.4919 11.4974 35.4061 9.72879C35.1161 3.7221 31.5322 0.375244 25.0808 0.102087C23.1838 0.0193127 22.5801 0 17.7563 0ZM17.7562 2.98542C22.4971 2.98542 23.0594 3.00198 24.9327 3.08199C29.7476 3.28617 31.9908 5.41348 32.2127 9.86676C32.2956 11.6133 32.3134 12.1348 32.3134 16.555C32.3134 20.9751 32.2956 21.4994 32.2127 23.2432C31.9908 27.6937 29.7505 29.8265 24.9327 30.0307C23.0594 30.1079 22.5 30.1273 17.7562 30.1273C13.0152 30.1273 12.4529 30.1107 10.5826 30.0307C5.75881 29.8237 3.52448 27.6882 3.30252 23.2432C3.21966 21.4994 3.19894 20.9751 3.19894 16.555C3.19894 12.1348 3.21966 11.6105 3.30252 9.86676C3.52152 5.41072 5.76473 3.28341 10.5826 3.07923C12.4529 2.99922 13.0152 2.98542 17.7562 2.98542ZM8.63856 16.555C8.63856 11.8589 12.7225 8.054 17.7564 8.054C22.7903 8.054 26.8743 11.8616 26.8743 16.555C26.8743 21.2511 22.7903 25.0559 17.7564 25.0559C12.7225 25.0559 8.63856 21.2511 8.63856 16.555ZM17.7563 22.0733C14.4862 22.0733 11.8376 19.6038 11.8376 16.555C11.8376 13.5088 14.4862 11.0366 17.7563 11.0366C21.0235 11.0366 23.6781 13.5061 23.6781 16.555C23.6781 19.6038 21.0235 22.0733 17.7563 22.0733ZM25.101 7.72016C25.101 6.62201 26.0568 5.73356 27.2317 5.73356C28.4125 5.73356 29.3654 6.62201 29.3654 7.72016C29.3654 8.8183 28.4096 9.70675 27.2317 9.70675C26.0539 9.70675 25.101 8.81554 25.101 7.72016Z" fill="#333333"/>
</svg>
