<svg width="34" height="34" viewBox="0 0 34 34" fill="none" xmlns="http://www.w3.org/2000/svg">
<path fill-rule="evenodd" clip-rule="evenodd" d="M3.9036 1.8578L8.19043 0L14.2815 11.0878L10.1741 12.9723C9.36313 14.7416 13.4284 21.8102 15.1437 21.9269C15.2794 21.8454 19.1698 20.0606 19.1698 20.0606L25.3649 31.2075C25.3649 31.2075 21.1987 33.1102 21.063 33.1693C9.21391 38.2157 -7.72844 7.51132 3.9036 1.8578ZM6.80832 3.64773L5.26633 4.356C-2.71346 8.23744 11.5624 34.1273 19.809 30.6154L21.2726 29.9493L17.8495 23.7899L16.303 24.4925C11.5353 26.6665 3.84944 12.9424 8.68344 10.5267L10.2013 9.82824L6.80832 3.64773ZM23.0155 15.6201L18.6186 14.3975L19.9284 10.2996C21.0529 10.6116 22.0523 11.3255 22.6537 12.364C23.2566 13.4011 23.3516 14.5703 23.0155 15.6201ZM21.3377 5.88212C23.6755 6.53137 25.7481 8.01255 26.9992 10.1697C28.2518 12.3282 28.4462 14.7552 27.7498 16.9334L25.0442 16.1816C25.5341 14.6484 25.3954 12.9409 24.5136 11.4218C23.6348 9.90268 22.1758 8.86135 20.5298 8.40604L21.3377 5.88212ZM31.405 7.94801C29.4967 4.65399 26.3343 2.39568 22.7695 1.40494L21.942 3.9921C24.7984 4.78469 27.3307 6.59471 28.8621 9.23246C30.3906 11.8688 30.6287 14.8354 29.7786 17.4984L32.5521 18.2685C33.6147 14.9436 33.3178 11.2406 31.405 7.94801Z" fill="#333333"/>
</svg>
