<svg width="44" height="36" viewBox="0 0 44 36" fill="none" xmlns="http://www.w3.org/2000/svg">
<path d="M44 4.2633C42.383 4.98677 40.6413 5.47401 38.8153 5.69548C40.6817 4.56967 42.108 2.79053 42.7863 0.668102C41.041 1.70901 39.1087 2.4657 37.0517 2.87173C35.409 1.10366 33.0587 0 30.4663 0C24.6363 0 20.3537 5.47401 21.67 11.1584C14.1717 10.7782 7.51667 7.16087 3.06533 1.66472C0.700334 5.74715 1.84067 11.092 5.85933 13.7976C4.38167 13.7496 2.992 13.3399 1.77467 12.6607C1.67567 16.8687 4.675 20.8071 9.01633 21.6856C7.74767 22.0326 6.35433 22.1138 4.939 21.8407C6.08667 25.4506 9.427 28.0751 13.3723 28.1489C9.57 31.1461 4.79233 32.486 0 31.9176C3.99667 34.4977 8.73767 36 13.8343 36C30.5983 36 40.0657 21.7484 39.4937 8.96586C41.261 7.68871 42.79 6.08674 44 4.2633Z" fill="#333333"/>
</svg>
