<svg width="212" height="36" viewBox="0 0 212 36" fill="none" xmlns="http://www.w3.org/2000/svg">
<path fill-rule="evenodd" clip-rule="evenodd" d="M16.6903 0L21.792 11.1628L33.3807 12.8605L24.9465 21.4568L27.005 33.6684L16.6903 27.817L6.37432 33.6684L8.43418 21.4568L0 12.8605L11.5887 11.1628L16.6903 0Z" fill="#0076FF"/>
<path fill-rule="evenodd" clip-rule="evenodd" d="M61.1981 0L66.2997 11.1628L77.8884 12.8605L69.4542 21.4568L71.5127 33.6684L61.1981 27.817L50.882 33.6684L52.9419 21.4568L44.5077 12.8605L56.0964 11.1628L61.1981 0Z" fill="#0076FF"/>
<path fill-rule="evenodd" clip-rule="evenodd" d="M105.706 0L110.807 11.1628L122.396 12.8605L113.962 21.4568L116.02 33.6684L105.706 27.817L95.3897 33.6684L97.4495 21.4568L89.0154 12.8605L100.604 11.1628L105.706 0Z" fill="#0076FF"/>
<path fill-rule="evenodd" clip-rule="evenodd" d="M150.213 0L155.315 11.1628L166.904 12.8605L158.469 21.4568L160.528 33.6684L150.213 27.817L139.897 33.6684L141.957 21.4568L133.523 12.8605L145.112 11.1628L150.213 0Z" fill="#0076FF"/>
<path fill-rule="evenodd" clip-rule="evenodd" d="M189.619 12.6374L194.721 1.47461L199.823 12.6389L211.411 14.3351L202.977 22.93L205.036 35.1415L194.721 29.2916L184.406 35.143L186.465 22.9314L178.031 14.3351L189.619 12.6374ZM197.969 15.3442L194.721 8.23908L191.473 15.3442L184.095 16.4253L189.465 21.8976L188.155 29.6708L194.721 25.9465L201.287 29.6694L199.977 21.8961L205.347 16.4239L197.969 15.3442Z" fill="#0076FF"/>
</svg>
