<svg width="174" height="111" viewBox="0 0 174 111" fill="none" xmlns="http://www.w3.org/2000/svg">
<rect width="174" height="111" rx="10" fill="#D9D9D9"/>
<path d="M93.968 54.76V66.088H91.632V57H87.568V54.76H93.968ZM93.968 65.032C94.7573 66.2053 95.856 67.08 97.264 67.656C98.6933 68.232 100.368 68.552 102.288 68.616C103.163 68.6587 104.229 68.6907 105.488 68.712C106.747 68.712 108.059 68.7013 109.424 68.68C110.811 68.6587 112.155 68.6267 113.456 68.584C114.757 68.5413 115.877 68.488 116.816 68.424C116.731 68.5947 116.635 68.8293 116.528 69.128C116.421 69.4267 116.325 69.7253 116.24 70.024C116.155 70.344 116.091 70.6213 116.048 70.856C115.173 70.8987 114.128 70.9307 112.912 70.952C111.717 70.9733 110.469 70.984 109.168 70.984C107.867 71.0053 106.608 71.0053 105.392 70.984C104.197 70.984 103.163 70.9733 102.288 70.952C100.133 70.8667 98.2987 70.5253 96.784 69.928C95.2693 69.3307 93.9893 68.392 92.944 67.112C92.1973 67.7947 91.4507 68.4773 90.704 69.16C89.9573 69.864 89.168 70.5787 88.336 71.304L87.056 68.84C87.8027 68.328 88.592 67.7413 89.424 67.08C90.256 66.3973 91.0453 65.7147 91.792 65.032H93.968ZM87.824 44.296L89.616 42.888C90.2773 43.3573 90.9493 43.9013 91.632 44.52C92.336 45.1173 92.976 45.7253 93.552 46.344C94.128 46.9413 94.5867 47.5067 94.928 48.04L93.008 49.576C92.688 49.064 92.24 48.4987 91.664 47.88C91.1093 47.24 90.5013 46.6107 89.84 45.992C89.1787 45.352 88.5067 44.7867 87.824 44.296ZM99.408 43.72H115.568V45.96H99.408V43.72ZM99.632 50.408H112.72V52.616H99.632V50.408ZM98.288 43.72H100.592V51.144C100.592 52.2533 100.539 53.4587 100.432 54.76C100.347 56.0613 100.176 57.384 99.92 58.728C99.664 60.072 99.28 61.384 98.768 62.664C98.2773 63.944 97.616 65.1173 96.784 66.184C96.656 66.0347 96.4747 65.8747 96.24 65.704C96.0053 65.512 95.76 65.3413 95.504 65.192C95.248 65.0213 95.024 64.904 94.832 64.84C95.6213 63.8373 96.24 62.76 96.688 61.608C97.136 60.4347 97.4773 59.24 97.712 58.024C97.9467 56.808 98.096 55.6133 98.16 54.44C98.2453 53.2453 98.288 52.136 98.288 51.112V43.72ZM112.112 50.408H112.56L113.008 50.344L114.512 50.856C114 52.9893 113.285 54.92 112.368 56.648C111.472 58.3547 110.416 59.88 109.2 61.224C107.984 62.5467 106.651 63.688 105.2 64.648C103.771 65.5867 102.256 66.3653 100.656 66.984C100.571 66.7707 100.443 66.5467 100.272 66.312C100.123 66.056 99.9627 65.8107 99.792 65.576C99.6213 65.32 99.4507 65.1173 99.28 64.968C100.731 64.456 102.128 63.784 103.472 62.952C104.816 62.0987 106.053 61.0747 107.184 59.88C108.315 58.6853 109.307 57.3307 110.16 55.816C111.013 54.3013 111.664 52.648 112.112 50.856V50.408ZM103.344 51.88C104.389 55.144 106.021 57.9387 108.24 60.264C110.48 62.5893 113.296 64.2213 116.688 65.16C116.517 65.3307 116.336 65.544 116.144 65.8C115.952 66.0347 115.76 66.28 115.568 66.536C115.397 66.7707 115.248 67.0053 115.12 67.24C112.795 66.472 110.736 65.3947 108.944 64.008C107.152 62.6213 105.616 60.9573 104.336 59.016C103.056 57.0533 102.021 54.8453 101.232 52.392L103.344 51.88ZM131.968 53V60.328H139.776V53H131.968ZM129.696 50.824H142.144V62.472H129.696V50.824ZM122.624 43.432H149.408V71.528H146.848V45.832H125.088V71.528H122.624V43.432ZM124.032 67.528H148.32V69.8H124.032V67.528Z" fill="black"/>
<path d="M48.0888 39C44.3714 39 40.7376 40.1023 37.6467 42.1676C34.5558 44.2328 32.1468 47.1683 30.7242 50.6027C29.3016 54.0371 28.9294 57.8162 29.6546 61.4621C30.3798 65.1081 32.1699 68.4571 34.7985 71.0857C37.4271 73.7142 40.7761 75.5043 44.422 76.2295C48.068 76.9548 51.8471 76.5826 55.2815 75.16C58.7159 73.7374 61.6513 71.3284 63.7166 68.2375C65.7818 65.1466 66.8842 61.5127 66.8842 57.7953C66.8789 52.8121 64.897 48.0345 61.3733 44.5108C57.8496 40.9872 53.072 39.0053 48.0888 39ZM48.0888 73.6991C44.9433 73.6991 41.8685 72.7664 39.2532 71.0188C36.6378 69.2713 34.5994 66.7875 33.3957 63.8814C32.1919 60.9754 31.877 57.7777 32.4906 54.6927C33.1043 51.6077 34.619 48.7739 36.8432 46.5497C39.0673 44.3255 41.9011 42.8108 44.9861 42.1972C48.0712 41.5835 51.2689 41.8985 54.1749 43.1022C57.0809 44.3059 59.5648 46.3443 61.3123 48.9597C63.0598 51.5751 63.9926 54.6499 63.9926 57.7953C63.9878 62.0118 62.3107 66.0542 59.3292 69.0357C56.3477 72.0172 52.3053 73.6943 48.0888 73.6991ZM52.0033 51.5893L45.7954 57.7953L52.0033 64.0014C52.1376 64.1357 52.2442 64.2952 52.3169 64.4707C52.3896 64.6462 52.427 64.8344 52.427 65.0243C52.427 65.2143 52.3896 65.4024 52.3169 65.5779C52.2442 65.7534 52.1376 65.9129 52.0033 66.0472C51.869 66.1816 51.7095 66.2881 51.534 66.3608C51.3585 66.4335 51.1704 66.4709 50.9804 66.4709C50.7904 66.4709 50.6023 66.4335 50.4268 66.3608C50.2513 66.2881 50.0918 66.1816 49.9575 66.0472L42.7285 58.8182C42.5941 58.684 42.4875 58.5245 42.4147 58.349C42.3419 58.1735 42.3045 57.9853 42.3045 57.7953C42.3045 57.6053 42.3419 57.4172 42.4147 57.2417C42.4875 57.0662 42.5941 56.9067 42.7285 56.7724L49.9575 49.5435C50.0918 49.4091 50.2513 49.3026 50.4268 49.2299C50.6023 49.1572 50.7904 49.1198 50.9804 49.1198C51.1704 49.1198 51.3585 49.1572 51.534 49.2299C51.7095 49.3026 51.869 49.4091 52.0033 49.5435C52.1376 49.6778 52.2442 49.8373 52.3169 50.0128C52.3896 50.1883 52.427 50.3764 52.427 50.5664C52.427 50.7563 52.3896 50.9444 52.3169 51.12C52.2442 51.2955 52.1376 51.4549 52.0033 51.5893Z" fill="black"/>
</svg>
