<svg width="66" height="66" viewBox="0 0 66 66" fill="none" xmlns="http://www.w3.org/2000/svg">
<path fill-rule="evenodd" clip-rule="evenodd" d="M32.8588 0C14.7125 0 0 14.7125 0 32.8588C0 51.0051 14.7125 65.7176 32.8588 65.7176C51.0051 65.7176 65.7176 51.0051 65.7176 32.8588C65.7176 14.7125 51.0051 0 32.8588 0ZM32.8596 5.47594C47.9583 5.47594 60.242 17.7596 60.242 32.8583C60.242 47.9569 47.9583 60.2406 32.8596 60.2406C17.761 60.2406 5.47731 47.9569 5.47731 32.8583C5.47731 17.7596 17.761 5.47594 32.8596 5.47594ZM21.9067 27.3822H27.3832V22.7491C27.3832 18.598 29.5683 16.4293 34.4916 16.4293H41.0744V23.2749H37.1258C35.8608 23.2749 35.5979 23.7924 35.5979 25.1013V27.3822H41.0744L40.5815 32.8587H35.5979V49.2881H27.3832V32.8587H21.9067V27.3822Z" fill="#0076FF"/>
</svg>
