<svg width="223" height="238" viewBox="0 0 223 238" fill="none" xmlns="http://www.w3.org/2000/svg">
<mask id="mask0_910_1627" style="mask-type:luminance" maskUnits="userSpaceOnUse" x="0" y="0" width="223" height="238">
<path d="M111.285 237.329C172.746 237.329 222.57 184.201 222.57 118.665C222.57 53.1279 172.746 0 111.285 0C49.824 0 0 53.1279 0 118.665C0 184.201 49.824 237.329 111.285 237.329Z" fill="white"/>
</mask>
<g mask="url(#mask0_910_1627)">
<path d="M1.33673 244.609C5.10663 244.609 8.16272 241.35 8.16272 237.329C8.16272 233.308 5.10663 230.049 1.33673 230.049C-2.43316 230.049 -5.48926 233.308 -5.48926 237.329C-5.48926 241.35 -2.43316 244.609 1.33673 244.609Z" fill="#FF9800"/>
<path d="M1.33673 217.662C5.10663 217.662 8.16272 214.403 8.16272 210.382C8.16272 206.361 5.10663 203.102 1.33673 203.102C-2.43316 203.102 -5.48926 206.361 -5.48926 210.382C-5.48926 214.403 -2.43316 217.662 1.33673 217.662Z" fill="#FF9800"/>
<path d="M1.33673 190.715C5.10663 190.715 8.16272 187.456 8.16272 183.435C8.16272 179.414 5.10663 176.155 1.33673 176.155C-2.43316 176.155 -5.48926 179.414 -5.48926 183.435C-5.48926 187.456 -2.43316 190.715 1.33673 190.715Z" fill="#FF9800"/>
<path d="M1.33673 163.768C5.10663 163.768 8.16272 160.509 8.16272 156.488C8.16272 152.467 5.10663 149.208 1.33673 149.208C-2.43316 149.208 -5.48926 152.467 -5.48926 156.488C-5.48926 160.509 -2.43316 163.768 1.33673 163.768Z" fill="#FF9800"/>
<path d="M1.33673 136.821C5.10663 136.821 8.16272 133.562 8.16272 129.541C8.16272 125.52 5.10663 122.261 1.33673 122.261C-2.43316 122.261 -5.48926 125.52 -5.48926 129.541C-5.48926 133.562 -2.43316 136.821 1.33673 136.821Z" fill="#FF9800"/>
<path d="M1.33673 95.3149C5.10673 95.3149 8.16376 98.5743 8.16376 102.594C8.16376 106.615 5.10673 109.874 1.33673 109.874C-2.43427 109.874 -5.49023 106.615 -5.49023 102.594C-5.49023 98.5743 -2.43427 95.3149 1.33673 95.3149Z" fill="#FF9800"/>
<path d="M1.33673 68.3679C5.10673 68.3679 8.16376 71.6272 8.16376 75.647C8.16376 79.6678 5.10673 82.9272 1.33673 82.9272C-2.43427 82.9272 -5.49023 79.6678 -5.49023 75.647C-5.49023 71.6272 -2.43427 68.3679 1.33673 68.3679Z" fill="#FF9800"/>
<path d="M1.33673 55.9812C5.10663 55.9812 8.16272 52.7218 8.16272 48.701C8.16272 44.6803 5.10663 41.4209 1.33673 41.4209C-2.43316 41.4209 -5.48926 44.6803 -5.48926 48.701C-5.48926 52.7218 -2.43316 55.9812 1.33673 55.9812Z" fill="#FF9800"/>
<path d="M1.33673 14.4749C5.10673 14.4749 8.16376 17.7342 8.16376 21.755C8.16376 25.7748 5.10673 29.0341 1.33673 29.0341C-2.43427 29.0341 -5.49023 25.7748 -5.49023 21.755C-5.49023 17.7342 -2.43427 14.4749 1.33673 14.4749Z" fill="#FF9800"/>
<path d="M1.33673 2.08715C5.10663 2.08715 8.16272 -1.17229 8.16272 -5.19301C8.16272 -9.21372 5.10663 -12.4731 1.33673 -12.4731C-2.43316 -12.4731 -5.48926 -9.21372 -5.48926 -5.19301C-5.48926 -1.17229 -2.43316 2.08715 1.33673 2.08715Z" fill="#FF9800"/>
<path d="M24.6917 244.609C28.4616 244.609 31.5178 241.35 31.5178 237.329C31.5178 233.308 28.4616 230.049 24.6917 230.049C20.9218 230.049 17.8657 233.308 17.8657 237.329C17.8657 241.35 20.9218 244.609 24.6917 244.609Z" fill="#FF9800"/>
<path d="M24.6917 217.662C28.4616 217.662 31.5178 214.403 31.5178 210.382C31.5178 206.361 28.4616 203.102 24.6917 203.102C20.9218 203.102 17.8657 206.361 17.8657 210.382C17.8657 214.403 20.9218 217.662 24.6917 217.662Z" fill="#FF9800"/>
<path d="M24.6917 190.715C28.4616 190.715 31.5178 187.456 31.5178 183.435C31.5178 179.414 28.4616 176.155 24.6917 176.155C20.9218 176.155 17.8657 179.414 17.8657 183.435C17.8657 187.456 20.9218 190.715 24.6917 190.715Z" fill="#FF9800"/>
<path d="M24.6917 163.768C28.4616 163.768 31.5178 160.509 31.5178 156.488C31.5178 152.467 28.4616 149.208 24.6917 149.208C20.9218 149.208 17.8657 152.467 17.8657 156.488C17.8657 160.509 20.9218 163.768 24.6917 163.768Z" fill="#FF9800"/>
<path d="M24.6917 136.821C28.4616 136.821 31.5178 133.562 31.5178 129.541C31.5178 125.52 28.4616 122.261 24.6917 122.261C20.9218 122.261 17.8657 125.52 17.8657 129.541C17.8657 133.562 20.9218 136.821 24.6917 136.821Z" fill="#FF9800"/>
<path d="M24.6917 95.3149C28.4617 95.3149 31.5187 98.5743 31.5187 102.594C31.5187 106.615 28.4627 109.874 24.6917 109.874C20.9217 109.874 17.8647 106.615 17.8647 102.594C17.8647 98.5743 20.9207 95.3149 24.6917 95.3149Z" fill="#FF9800"/>
<path d="M24.6917 68.3679C28.4617 68.3679 31.5187 71.6272 31.5187 75.647C31.5187 79.6678 28.4627 82.9272 24.6917 82.9272C20.9217 82.9272 17.8647 79.6678 17.8647 75.647C17.8647 71.6272 20.9207 68.3679 24.6917 68.3679Z" fill="#FF9800"/>
<path d="M24.6917 55.9812C28.4616 55.9812 31.5178 52.7218 31.5178 48.701C31.5178 44.6803 28.4616 41.4209 24.6917 41.4209C20.9218 41.4209 17.8657 44.6803 17.8657 48.701C17.8657 52.7218 20.9218 55.9812 24.6917 55.9812Z" fill="#FF9800"/>
<path d="M24.6917 14.4749C28.4617 14.4749 31.5187 17.7342 31.5187 21.755C31.5187 25.7748 28.4627 29.0341 24.6917 29.0341C20.9217 29.0341 17.8647 25.7748 17.8647 21.755C17.8647 17.7342 20.9207 14.4749 24.6917 14.4749Z" fill="#FF9800"/>
<path d="M24.6917 2.08715C28.4616 2.08715 31.5178 -1.17229 31.5178 -5.19301C31.5178 -9.21372 28.4616 -12.4731 24.6917 -12.4731C20.9218 -12.4731 17.8657 -9.21372 17.8657 -5.19301C17.8657 -1.17229 20.9218 2.08715 24.6917 2.08715Z" fill="#FF9800"/>
<path d="M48.0468 230.05C51.8168 230.05 54.8737 233.309 54.8737 237.329C54.8737 241.35 51.8168 244.608 48.0468 244.608C44.2768 244.608 41.2197 241.349 41.2197 237.329C41.2197 233.308 44.2758 230.05 48.0468 230.05Z" fill="#FF9800"/>
<path d="M48.0468 203.103C51.8168 203.103 54.8737 206.362 54.8737 210.382C54.8737 214.403 51.8168 217.661 48.0468 217.661C44.2768 217.661 41.2197 214.402 41.2197 210.382C41.2197 206.361 44.2758 203.103 48.0468 203.103Z" fill="#FF9800"/>
<path d="M48.0468 176.156C51.8168 176.156 54.8737 179.415 54.8737 183.435C54.8737 187.456 51.8168 190.714 48.0468 190.714C44.2768 190.714 41.2197 187.455 41.2197 183.435C41.2197 179.415 44.2758 176.156 48.0468 176.156Z" fill="#FF9800"/>
<path d="M48.0468 149.209C51.8168 149.209 54.8737 152.468 54.8737 156.488C54.8737 160.509 51.8168 163.767 48.0468 163.767C44.2768 163.767 41.2197 160.508 41.2197 156.488C41.2197 152.468 44.2758 149.209 48.0468 149.209Z" fill="#FF9800"/>
<path d="M48.0468 122.262C51.8168 122.262 54.8737 125.521 54.8737 129.541C54.8737 133.561 51.8168 136.82 48.0468 136.82C44.2768 136.82 41.2197 133.561 41.2197 129.541C41.2197 125.521 44.2758 122.262 48.0468 122.262Z" fill="#FF9800"/>
<path d="M48.0468 95.3149C51.8168 95.3149 54.8737 98.5743 54.8737 102.594C54.8737 106.615 51.8168 109.874 48.0468 109.874C44.2768 109.874 41.2197 106.615 41.2197 102.594C41.2197 98.5743 44.2758 95.3149 48.0468 95.3149Z" fill="#FF9800"/>
<path d="M48.0468 68.3679C51.8168 68.3679 54.8737 71.6272 54.8737 75.647C54.8737 79.6678 51.8168 82.9272 48.0468 82.9272C44.2768 82.9272 41.2197 79.6678 41.2197 75.647C41.2197 71.6272 44.2758 68.3679 48.0468 68.3679Z" fill="#FF9800"/>
<path d="M48.0468 41.4209C51.8168 41.4209 54.8737 44.6802 54.8737 48.7C54.8737 52.7208 51.8168 55.9791 48.0468 55.9791C44.2768 55.9791 41.2197 52.7197 41.2197 48.7C41.2197 44.6802 44.2758 41.4209 48.0468 41.4209Z" fill="#FF9800"/>
<path d="M48.0468 14.4749C51.8168 14.4749 54.8737 17.7342 54.8737 21.755C54.8737 25.7748 51.8168 29.0341 48.0468 29.0341C44.2768 29.0341 41.2197 25.7748 41.2197 21.755C41.2197 17.7342 44.2758 14.4749 48.0468 14.4749Z" fill="#FF9800"/>
<path d="M48.0468 -12.4722C51.8168 -12.4722 54.8737 -9.21285 54.8737 -5.19309C54.8737 -1.17333 51.8168 2.08599 48.0468 2.08599C44.2768 2.08599 41.2197 -1.17333 41.2197 -5.19309C41.2197 -9.21285 44.2758 -12.4722 48.0468 -12.4722Z" fill="#FF9800"/>
<path d="M71.4017 244.609C75.1716 244.609 78.2277 241.35 78.2277 237.329C78.2277 233.308 75.1716 230.049 71.4017 230.049C67.6318 230.049 64.5757 233.308 64.5757 237.329C64.5757 241.35 67.6318 244.609 71.4017 244.609Z" fill="#FF9800"/>
<path d="M71.4017 217.662C75.1716 217.662 78.2277 214.403 78.2277 210.382C78.2277 206.361 75.1716 203.102 71.4017 203.102C67.6318 203.102 64.5757 206.361 64.5757 210.382C64.5757 214.403 67.6318 217.662 71.4017 217.662Z" fill="#FF9800"/>
<path d="M71.4017 190.715C75.1716 190.715 78.2277 187.456 78.2277 183.435C78.2277 179.414 75.1716 176.155 71.4017 176.155C67.6318 176.155 64.5757 179.414 64.5757 183.435C64.5757 187.456 67.6318 190.715 71.4017 190.715Z" fill="#FF9800"/>
<path d="M71.4017 163.768C75.1716 163.768 78.2277 160.509 78.2277 156.488C78.2277 152.467 75.1716 149.208 71.4017 149.208C67.6318 149.208 64.5757 152.467 64.5757 156.488C64.5757 160.509 67.6318 163.768 71.4017 163.768Z" fill="#FF9800"/>
<path d="M71.4017 136.821C75.1716 136.821 78.2277 133.562 78.2277 129.541C78.2277 125.52 75.1716 122.261 71.4017 122.261C67.6318 122.261 64.5757 125.52 64.5757 129.541C64.5757 133.562 67.6318 136.821 71.4017 136.821Z" fill="#FF9800"/>
<path d="M71.4017 95.3149C75.1717 95.3149 78.2287 98.5743 78.2287 102.594C78.2287 106.615 75.1717 109.874 71.4017 109.874C67.6317 109.874 64.5747 106.615 64.5747 102.594C64.5747 98.5743 67.6307 95.3149 71.4017 95.3149Z" fill="#FF9800"/>
<path d="M71.4017 68.3679C75.1717 68.3679 78.2287 71.6272 78.2287 75.647C78.2287 79.6678 75.1717 82.9272 71.4017 82.9272C67.6317 82.9272 64.5747 79.6678 64.5747 75.647C64.5747 71.6272 67.6307 68.3679 71.4017 68.3679Z" fill="#FF9800"/>
<path d="M71.4017 55.9812C75.1716 55.9812 78.2277 52.7218 78.2277 48.701C78.2277 44.6803 75.1716 41.4209 71.4017 41.4209C67.6318 41.4209 64.5757 44.6803 64.5757 48.701C64.5757 52.7218 67.6318 55.9812 71.4017 55.9812Z" fill="#FF9800"/>
<path d="M71.4017 14.4749C75.1717 14.4749 78.2287 17.7342 78.2287 21.755C78.2287 25.7748 75.1717 29.0341 71.4017 29.0341C67.6317 29.0341 64.5747 25.7748 64.5747 21.755C64.5747 17.7342 67.6307 14.4749 71.4017 14.4749Z" fill="#FF9800"/>
<path d="M71.4017 2.08715C75.1716 2.08715 78.2277 -1.17229 78.2277 -5.19301C78.2277 -9.21372 75.1716 -12.4731 71.4017 -12.4731C67.6318 -12.4731 64.5757 -9.21372 64.5757 -5.19301C64.5757 -1.17229 67.6318 2.08715 71.4017 2.08715Z" fill="#FF9800"/>
<path d="M94.7557 244.609C98.5256 244.609 101.582 241.35 101.582 237.329C101.582 233.308 98.5256 230.049 94.7557 230.049C90.9858 230.049 87.9297 233.308 87.9297 237.329C87.9297 241.35 90.9858 244.609 94.7557 244.609Z" fill="#FF9800"/>
<path d="M94.7557 217.662C98.5256 217.662 101.582 214.403 101.582 210.382C101.582 206.361 98.5256 203.102 94.7557 203.102C90.9858 203.102 87.9297 206.361 87.9297 210.382C87.9297 214.403 90.9858 217.662 94.7557 217.662Z" fill="#FF9800"/>
<path d="M94.7557 190.715C98.5256 190.715 101.582 187.456 101.582 183.435C101.582 179.414 98.5256 176.155 94.7557 176.155C90.9858 176.155 87.9297 179.414 87.9297 183.435C87.9297 187.456 90.9858 190.715 94.7557 190.715Z" fill="#FF9800"/>
<path d="M94.7557 163.768C98.5256 163.768 101.582 160.509 101.582 156.488C101.582 152.467 98.5256 149.208 94.7557 149.208C90.9858 149.208 87.9297 152.467 87.9297 156.488C87.9297 160.509 90.9858 163.768 94.7557 163.768Z" fill="#FF9800"/>
<path d="M94.7557 136.821C98.5256 136.821 101.582 133.562 101.582 129.541C101.582 125.52 98.5256 122.261 94.7557 122.261C90.9858 122.261 87.9297 125.52 87.9297 129.541C87.9297 133.562 90.9858 136.821 94.7557 136.821Z" fill="#FF9800"/>
<path d="M94.7557 95.3149C98.5257 95.3149 101.583 98.5743 101.583 102.594C101.583 106.615 98.5267 109.874 94.7557 109.874C90.9857 109.874 87.9287 106.615 87.9287 102.594C87.9297 98.5743 90.9857 95.3149 94.7557 95.3149Z" fill="#FF9800"/>
<path d="M94.7557 68.3679C98.5257 68.3679 101.583 71.6272 101.583 75.647C101.583 79.6678 98.5267 82.9272 94.7557 82.9272C90.9857 82.9272 87.9287 79.6678 87.9287 75.647C87.9297 71.6272 90.9857 68.3679 94.7557 68.3679Z" fill="#FF9800"/>
<path d="M94.7557 55.9812C98.5256 55.9812 101.582 52.7218 101.582 48.701C101.582 44.6803 98.5256 41.4209 94.7557 41.4209C90.9858 41.4209 87.9297 44.6803 87.9297 48.701C87.9297 52.7218 90.9858 55.9812 94.7557 55.9812Z" fill="#FF9800"/>
<path d="M94.7557 14.4749C98.5257 14.4749 101.583 17.7342 101.583 21.755C101.583 25.7748 98.5267 29.0341 94.7557 29.0341C90.9857 29.0341 87.9287 25.7748 87.9287 21.755C87.9297 17.7342 90.9857 14.4749 94.7557 14.4749Z" fill="#FF9800"/>
<path d="M94.7557 2.08715C98.5256 2.08715 101.582 -1.17229 101.582 -5.19301C101.582 -9.21372 98.5256 -12.4731 94.7557 -12.4731C90.9858 -12.4731 87.9297 -9.21372 87.9297 -5.19301C87.9297 -1.17229 90.9858 2.08715 94.7557 2.08715Z" fill="#FF9800"/>
<path d="M118.111 244.609C121.881 244.609 124.937 241.35 124.937 237.329C124.937 233.308 121.881 230.049 118.111 230.049C114.341 230.049 111.285 233.308 111.285 237.329C111.285 241.35 114.341 244.609 118.111 244.609Z" fill="#FF9800"/>
<path d="M118.111 217.662C121.881 217.662 124.937 214.403 124.937 210.382C124.937 206.361 121.881 203.102 118.111 203.102C114.341 203.102 111.285 206.361 111.285 210.382C111.285 214.403 114.341 217.662 118.111 217.662Z" fill="#FF9800"/>
<path d="M118.111 190.715C121.881 190.715 124.937 187.456 124.937 183.435C124.937 179.414 121.881 176.155 118.111 176.155C114.341 176.155 111.285 179.414 111.285 183.435C111.285 187.456 114.341 190.715 118.111 190.715Z" fill="#FF9800"/>
<path d="M118.111 163.768C121.881 163.768 124.937 160.509 124.937 156.488C124.937 152.467 121.881 149.208 118.111 149.208C114.341 149.208 111.285 152.467 111.285 156.488C111.285 160.509 114.341 163.768 118.111 163.768Z" fill="#FF9800"/>
<path d="M118.111 136.821C121.881 136.821 124.937 133.562 124.937 129.541C124.937 125.52 121.881 122.261 118.111 122.261C114.341 122.261 111.285 125.52 111.285 129.541C111.285 133.562 114.341 136.821 118.111 136.821Z" fill="#FF9800"/>
<path d="M118.111 95.3149C121.881 95.3149 124.938 98.5743 124.938 102.594C124.938 106.615 121.882 109.874 118.111 109.874C114.341 109.874 111.284 106.615 111.284 102.594C111.285 98.5743 114.341 95.3149 118.111 95.3149Z" fill="#FF9800"/>
<path d="M118.111 68.3679C121.881 68.3679 124.938 71.6272 124.938 75.647C124.938 79.6678 121.882 82.9272 118.111 82.9272C114.341 82.9272 111.284 79.6678 111.284 75.647C111.285 71.6272 114.341 68.3679 118.111 68.3679Z" fill="#FF9800"/>
<path d="M118.111 55.9812C121.881 55.9812 124.937 52.7218 124.937 48.701C124.937 44.6803 121.881 41.4209 118.111 41.4209C114.341 41.4209 111.285 44.6803 111.285 48.701C111.285 52.7218 114.341 55.9812 118.111 55.9812Z" fill="#FF9800"/>
<path d="M118.111 14.4749C121.881 14.4749 124.938 17.7342 124.938 21.755C124.938 25.7748 121.882 29.0341 118.111 29.0341C114.341 29.0341 111.284 25.7748 111.284 21.755C111.285 17.7342 114.341 14.4749 118.111 14.4749Z" fill="#FF9800"/>
<path d="M118.111 2.08715C121.881 2.08715 124.937 -1.17229 124.937 -5.19301C124.937 -9.21372 121.881 -12.4731 118.111 -12.4731C114.341 -12.4731 111.285 -9.21372 111.285 -5.19301C111.285 -1.17229 114.341 2.08715 118.111 2.08715Z" fill="#FF9800"/>
<path d="M141.466 244.609C145.236 244.609 148.292 241.35 148.292 237.329C148.292 233.308 145.236 230.049 141.466 230.049C137.696 230.049 134.64 233.308 134.64 237.329C134.64 241.35 137.696 244.609 141.466 244.609Z" fill="#FF9800"/>
<path d="M141.466 217.662C145.236 217.662 148.292 214.403 148.292 210.382C148.292 206.361 145.236 203.102 141.466 203.102C137.696 203.102 134.64 206.361 134.64 210.382C134.64 214.403 137.696 217.662 141.466 217.662Z" fill="#FF9800"/>
<path d="M141.466 190.715C145.236 190.715 148.292 187.456 148.292 183.435C148.292 179.414 145.236 176.155 141.466 176.155C137.696 176.155 134.64 179.414 134.64 183.435C134.64 187.456 137.696 190.715 141.466 190.715Z" fill="#FF9800"/>
<path d="M141.466 163.768C145.236 163.768 148.292 160.509 148.292 156.488C148.292 152.467 145.236 149.208 141.466 149.208C137.696 149.208 134.64 152.467 134.64 156.488C134.64 160.509 137.696 163.768 141.466 163.768Z" fill="#FF9800"/>
<path d="M141.466 136.821C145.236 136.821 148.292 133.562 148.292 129.541C148.292 125.52 145.236 122.261 141.466 122.261C137.696 122.261 134.64 125.52 134.64 129.541C134.64 133.562 137.696 136.821 141.466 136.821Z" fill="#FF9800"/>
<path d="M141.466 95.3149C145.236 95.3149 148.293 98.5743 148.293 102.594C148.293 106.615 145.236 109.874 141.466 109.874C137.696 109.874 134.639 106.615 134.639 102.594C134.639 98.5743 137.696 95.3149 141.466 95.3149Z" fill="#FF9800"/>
<path d="M141.466 68.3679C145.236 68.3679 148.293 71.6272 148.293 75.647C148.293 79.6678 145.236 82.9272 141.466 82.9272C137.696 82.9272 134.639 79.6678 134.639 75.647C134.639 71.6272 137.696 68.3679 141.466 68.3679Z" fill="#FF9800"/>
<path d="M141.466 55.9812C145.236 55.9812 148.292 52.7218 148.292 48.701C148.292 44.6803 145.236 41.4209 141.466 41.4209C137.696 41.4209 134.64 44.6803 134.64 48.701C134.64 52.7218 137.696 55.9812 141.466 55.9812Z" fill="#FF9800"/>
<path d="M141.466 14.4749C145.236 14.4749 148.293 17.7342 148.293 21.755C148.293 25.7748 145.236 29.0341 141.466 29.0341C137.696 29.0341 134.639 25.7748 134.639 21.755C134.639 17.7342 137.696 14.4749 141.466 14.4749Z" fill="#FF9800"/>
<path d="M141.466 2.08715C145.236 2.08715 148.292 -1.17229 148.292 -5.19301C148.292 -9.21372 145.236 -12.4731 141.466 -12.4731C137.696 -12.4731 134.64 -9.21372 134.64 -5.19301C134.64 -1.17229 137.696 2.08715 141.466 2.08715Z" fill="#FF9800"/>
<path d="M164.821 244.609C168.591 244.609 171.647 241.35 171.647 237.329C171.647 233.308 168.591 230.049 164.821 230.049C161.051 230.049 157.995 233.308 157.995 237.329C157.995 241.35 161.051 244.609 164.821 244.609Z" fill="#FF9800"/>
<path d="M164.821 217.662C168.591 217.662 171.647 214.403 171.647 210.382C171.647 206.361 168.591 203.102 164.821 203.102C161.051 203.102 157.995 206.361 157.995 210.382C157.995 214.403 161.051 217.662 164.821 217.662Z" fill="#FF9800"/>
<path d="M164.821 190.715C168.591 190.715 171.647 187.456 171.647 183.435C171.647 179.414 168.591 176.155 164.821 176.155C161.051 176.155 157.995 179.414 157.995 183.435C157.995 187.456 161.051 190.715 164.821 190.715Z" fill="#FF9800"/>
<path d="M164.821 163.768C168.591 163.768 171.647 160.509 171.647 156.488C171.647 152.467 168.591 149.208 164.821 149.208C161.051 149.208 157.995 152.467 157.995 156.488C157.995 160.509 161.051 163.768 164.821 163.768Z" fill="#FF9800"/>
<path d="M164.821 136.821C168.591 136.821 171.647 133.562 171.647 129.541C171.647 125.52 168.591 122.261 164.821 122.261C161.051 122.261 157.995 125.52 157.995 129.541C157.995 133.562 161.051 136.821 164.821 136.821Z" fill="#FF9800"/>
<path d="M164.821 95.3149C168.591 95.3149 171.648 98.5743 171.648 102.594C171.648 106.615 168.592 109.874 164.821 109.874C161.051 109.874 157.994 106.615 157.994 102.594C157.994 98.5743 161.051 95.3149 164.821 95.3149Z" fill="#FF9800"/>
<path d="M164.821 68.3679C168.591 68.3679 171.648 71.6272 171.648 75.647C171.648 79.6678 168.592 82.9272 164.821 82.9272C161.051 82.9272 157.994 79.6678 157.994 75.647C157.994 71.6272 161.051 68.3679 164.821 68.3679Z" fill="#FF9800"/>
<path d="M164.821 55.9812C168.591 55.9812 171.647 52.7218 171.647 48.701C171.647 44.6803 168.591 41.4209 164.821 41.4209C161.051 41.4209 157.995 44.6803 157.995 48.701C157.995 52.7218 161.051 55.9812 164.821 55.9812Z" fill="#FF9800"/>
<path d="M164.821 14.4749C168.591 14.4749 171.648 17.7342 171.648 21.755C171.648 25.7748 168.592 29.0341 164.821 29.0341C161.051 29.0341 157.994 25.7748 157.994 21.755C157.994 17.7342 161.051 14.4749 164.821 14.4749Z" fill="#FF9800"/>
<path d="M164.821 2.08715C168.591 2.08715 171.647 -1.17229 171.647 -5.19301C171.647 -9.21372 168.591 -12.4731 164.821 -12.4731C161.051 -12.4731 157.995 -9.21372 157.995 -5.19301C157.995 -1.17229 161.051 2.08715 164.821 2.08715Z" fill="#FF9800"/>
<path d="M188.176 230.05C191.946 230.05 195.003 233.309 195.003 237.329C195.003 241.35 191.946 244.608 188.176 244.608C184.405 244.608 181.349 241.349 181.349 237.329C181.349 233.308 184.406 230.05 188.176 230.05Z" fill="#FF9800"/>
<path d="M188.176 203.103C191.946 203.103 195.003 206.362 195.003 210.382C195.003 214.403 191.946 217.661 188.176 217.661C184.405 217.661 181.349 214.402 181.349 210.382C181.349 206.361 184.406 203.103 188.176 203.103Z" fill="#FF9800"/>
<path d="M188.176 176.156C191.946 176.156 195.003 179.415 195.003 183.435C195.003 187.456 191.946 190.714 188.176 190.714C184.405 190.714 181.349 187.455 181.349 183.435C181.349 179.415 184.406 176.156 188.176 176.156Z" fill="#FF9800"/>
<path d="M188.176 149.209C191.946 149.209 195.003 152.468 195.003 156.488C195.003 160.509 191.946 163.767 188.176 163.767C184.405 163.767 181.349 160.508 181.349 156.488C181.349 152.468 184.406 149.209 188.176 149.209Z" fill="#FF9800"/>
<path d="M188.176 122.262C191.946 122.262 195.003 125.521 195.003 129.541C195.003 133.561 191.946 136.82 188.176 136.82C184.405 136.82 181.349 133.561 181.349 129.541C181.349 125.521 184.406 122.262 188.176 122.262Z" fill="#FF9800"/>
<path d="M188.176 95.3149C191.946 95.3149 195.003 98.5743 195.003 102.594C195.003 106.615 191.946 109.874 188.176 109.874C184.405 109.874 181.349 106.615 181.349 102.594C181.349 98.5743 184.406 95.3149 188.176 95.3149Z" fill="#FF9800"/>
<path d="M188.176 68.3679C191.946 68.3679 195.003 71.6272 195.003 75.647C195.003 79.6678 191.946 82.9272 188.176 82.9272C184.405 82.9272 181.349 79.6678 181.349 75.647C181.349 71.6272 184.406 68.3679 188.176 68.3679Z" fill="#FF9800"/>
<path d="M188.176 41.4209C191.946 41.4209 195.003 44.6802 195.003 48.7C195.003 52.7208 191.946 55.9791 188.176 55.9791C184.405 55.9791 181.349 52.7197 181.349 48.7C181.349 44.6802 184.406 41.4209 188.176 41.4209Z" fill="#FF9800"/>
<path d="M188.176 14.4749C191.946 14.4749 195.003 17.7342 195.003 21.755C195.003 25.7748 191.946 29.0341 188.176 29.0341C184.405 29.0341 181.349 25.7748 181.349 21.755C181.349 17.7342 184.406 14.4749 188.176 14.4749Z" fill="#FF9800"/>
<path d="M188.176 -12.4722C191.946 -12.4722 195.003 -9.21285 195.003 -5.19309C195.003 -1.17333 191.946 2.08599 188.176 2.08599C184.405 2.08599 181.349 -1.17333 181.349 -5.19309C181.349 -9.21285 184.406 -12.4722 188.176 -12.4722Z" fill="#FF9800"/>
<path d="M213.308 244.609C217.078 244.609 220.134 241.35 220.134 237.329C220.134 233.308 217.078 230.049 213.308 230.049C209.538 230.049 206.482 233.308 206.482 237.329C206.482 241.35 209.538 244.609 213.308 244.609Z" fill="#FF9800"/>
<path d="M213.308 217.662C217.078 217.662 220.134 214.403 220.134 210.382C220.134 206.361 217.078 203.102 213.308 203.102C209.538 203.102 206.482 206.361 206.482 210.382C206.482 214.403 209.538 217.662 213.308 217.662Z" fill="#FF9800"/>
<path d="M213.308 190.715C217.078 190.715 220.134 187.456 220.134 183.435C220.134 179.414 217.078 176.155 213.308 176.155C209.538 176.155 206.482 179.414 206.482 183.435C206.482 187.456 209.538 190.715 213.308 190.715Z" fill="#FF9800"/>
<path d="M213.308 163.768C217.078 163.768 220.134 160.509 220.134 156.488C220.134 152.467 217.078 149.208 213.308 149.208C209.538 149.208 206.482 152.467 206.482 156.488C206.482 160.509 209.538 163.768 213.308 163.768Z" fill="#FF9800"/>
<path d="M213.308 136.821C217.078 136.821 220.134 133.562 220.134 129.541C220.134 125.52 217.078 122.261 213.308 122.261C209.538 122.261 206.482 125.52 206.482 129.541C206.482 133.562 209.538 136.821 213.308 136.821Z" fill="#FF9800"/>
<path d="M213.307 95.3149C217.077 95.3149 220.135 98.5743 220.135 102.594C220.135 106.615 217.078 109.874 213.307 109.874C209.537 109.874 206.48 106.615 206.48 102.594C206.48 98.5743 209.536 95.3149 213.307 95.3149Z" fill="#FF9800"/>
<path d="M213.307 68.3679C217.077 68.3679 220.135 71.6272 220.135 75.647C220.135 79.6678 217.078 82.9272 213.307 82.9272C209.537 82.9272 206.48 79.6678 206.48 75.647C206.48 71.6272 209.536 68.3679 213.307 68.3679Z" fill="#FF9800"/>
<path d="M213.308 55.9812C217.078 55.9812 220.134 52.7218 220.134 48.701C220.134 44.6803 217.078 41.4209 213.308 41.4209C209.538 41.4209 206.482 44.6803 206.482 48.701C206.482 52.7218 209.538 55.9812 213.308 55.9812Z" fill="#FF9800"/>
<path d="M213.307 14.4749C217.077 14.4749 220.135 17.7342 220.135 21.755C220.135 25.7748 217.078 29.0341 213.307 29.0341C209.537 29.0341 206.48 25.7748 206.48 21.755C206.48 17.7342 209.536 14.4749 213.307 14.4749Z" fill="#FF9800"/>
<path d="M213.308 2.08715C217.078 2.08715 220.134 -1.17229 220.134 -5.19301C220.134 -9.21372 217.078 -12.4731 213.308 -12.4731C209.538 -12.4731 206.482 -9.21372 206.482 -5.19301C206.482 -1.17229 209.538 2.08715 213.308 2.08715Z" fill="#FF9800"/>
</g>
</svg>
