<svg width="87" height="87" viewBox="0 0 87 87" fill="none" xmlns="http://www.w3.org/2000/svg">
<circle cx="43.5" cy="43.5" r="43.5" fill="white"/>
<path d="M44.0002 32.75C45.4836 32.75 46.9336 32.3101 48.167 31.486C49.4004 30.6619 50.3617 29.4906 50.9293 28.1201C51.497 26.7497 51.6455 25.2417 51.3561 23.7868C51.0667 22.332 50.3524 20.9956 49.3035 19.9467C48.2546 18.8978 46.9183 18.1835 45.4634 17.8941C44.0085 17.6047 42.5005 17.7532 41.1301 18.3209C39.7597 18.8886 38.5883 19.8499 37.7642 21.0832C36.9401 22.3166 36.5002 23.7666 36.5002 25.25C36.5002 27.2391 37.2904 29.1468 38.6969 30.5533C40.1035 31.9598 42.0111 32.75 44.0002 32.75ZM44.0002 21.5C44.7419 21.5 45.4669 21.7199 46.0836 22.132C46.7003 22.544 47.1809 23.1297 47.4648 23.8149C47.7486 24.5002 47.8229 25.2542 47.6782 25.9816C47.5335 26.709 47.1763 27.3772 46.6519 27.9017C46.1274 28.4261 45.4592 28.7833 44.7318 28.9279C44.0044 29.0726 43.2504 28.9984 42.5652 28.7146C41.8799 28.4307 41.2943 27.9501 40.8822 27.3334C40.4702 26.7167 40.2502 25.9917 40.2502 25.25C40.2502 24.2554 40.6453 23.3016 41.3486 22.5984C42.0518 21.8951 43.0057 21.5 44.0002 21.5ZM68.108 44.9656C67.9813 45.1774 67.8139 45.3621 67.6156 45.5091C67.4173 45.6561 67.1919 45.7625 66.9524 45.8222C66.7128 45.8818 66.4639 45.8936 66.2198 45.8568C65.9757 45.82 65.7412 45.7354 65.5299 45.6078C65.4479 45.5586 57.301 40.782 45.8705 40.2945V48.9219L60.4018 65.2648C60.5652 65.4495 60.6907 65.6646 60.771 65.8977C60.8513 66.1309 60.8849 66.3776 60.8699 66.6237C60.8549 66.8699 60.7916 67.1107 60.6835 67.3323C60.5754 67.554 60.4247 67.7522 60.2401 67.9156C60.0554 68.0791 59.8403 68.2045 59.6072 68.2848C59.374 68.3652 59.1273 68.3988 58.8812 68.3838C58.635 68.3687 58.3943 68.3054 58.1726 68.1973C57.9509 68.0893 57.7527 67.9386 57.5893 67.7539L44.0002 52.4375L30.4065 67.7445C30.243 67.9292 30.0448 68.0799 29.8232 68.188C29.6015 68.296 29.3607 68.3594 29.1146 68.3744C28.8684 68.3894 28.6217 68.3558 28.3886 68.2755C28.1554 68.1951 27.9404 68.0697 27.7557 67.9063C27.571 67.7428 27.4204 67.5446 27.3123 67.3229C27.2042 67.1013 27.1409 66.8605 27.1258 66.6144C27.1108 66.3682 27.1444 66.1215 27.2248 65.8884C27.3051 65.6552 27.4305 65.4401 27.594 65.2555L42.1252 48.9219V40.2922C30.6409 40.7797 22.5502 45.5563 22.4659 45.6078C22.2546 45.7376 22.0198 45.8242 21.7749 45.8626C21.53 45.901 21.2799 45.8904 21.0391 45.8316C20.7983 45.7727 20.5715 45.6666 20.372 45.5196C20.1724 45.3725 20.004 45.1873 19.8765 44.9747C19.749 44.7621 19.6649 44.5264 19.629 44.2811C19.5932 44.0358 19.6064 43.7858 19.6678 43.5456C19.7293 43.3055 19.8377 43.0799 19.9869 42.8819C20.1361 42.6839 20.323 42.5175 20.5369 42.3922C20.9377 42.1508 30.5119 36.5 44.0002 36.5C57.4885 36.5 67.0627 42.1508 67.4659 42.3922C67.677 42.519 67.8612 42.6861 68.0078 42.884C68.1544 43.082 68.2605 43.3069 68.3201 43.5459C68.3798 43.7848 68.3917 44.0332 68.3553 44.2768C68.3189 44.5205 68.2349 44.7545 68.108 44.9656Z" fill="black"/>
</svg>
