<svg width="87" height="87" viewBox="0 0 87 87" fill="none" xmlns="http://www.w3.org/2000/svg">
<circle cx="43.5" cy="43.5" r="43.5" fill="white"/>
<path d="M67.8266 40.7984L45.3266 18.2984C45.1524 18.1241 44.9456 17.9858 44.718 17.8915C44.4904 17.7971 44.2464 17.7485 44 17.7485C43.7536 17.7485 43.5096 17.7971 43.282 17.8915C43.0544 17.9858 42.8476 18.1241 42.6735 18.2984L20.1734 40.7984C19.9109 41.0607 19.7321 41.3949 19.6596 41.7588C19.5872 42.1227 19.6243 42.4999 19.7663 42.8427C19.9084 43.1855 20.1489 43.4785 20.4575 43.6845C20.7662 43.8905 21.129 44.0003 21.5 44H30.875V49.625C30.875 50.1223 31.0726 50.5992 31.4242 50.9508C31.7758 51.3025 32.2527 51.5 32.75 51.5H55.25C55.7473 51.5 56.2242 51.3025 56.5758 50.9508C56.9275 50.5992 57.125 50.1223 57.125 49.625V44H66.5C66.8711 44.0003 67.2339 43.8905 67.5425 43.6845C67.8511 43.4785 68.0916 43.1855 68.2337 42.8427C68.3757 42.4999 68.4129 42.1227 68.3404 41.7588C68.2679 41.3949 68.0891 41.0607 67.8266 40.7984ZM55.25 40.25C54.7527 40.25 54.2758 40.4476 53.9242 40.7992C53.5726 41.1508 53.375 41.6277 53.375 42.125V47.75H34.625V42.125C34.625 41.6277 34.4275 41.1508 34.0758 40.7992C33.7242 40.4476 33.2473 40.25 32.75 40.25H26.0258L44 22.2758L61.9742 40.25H55.25ZM57.125 64.625C57.125 65.1223 56.9275 65.5992 56.5758 65.9508C56.2242 66.3025 55.7473 66.5 55.25 66.5H32.75C32.2527 66.5 31.7758 66.3025 31.4242 65.9508C31.0726 65.5992 30.875 65.1223 30.875 64.625C30.875 64.1277 31.0726 63.6508 31.4242 63.2992C31.7758 62.9476 32.2527 62.75 32.75 62.75H55.25C55.7473 62.75 56.2242 62.9476 56.5758 63.2992C56.9275 63.6508 57.125 64.1277 57.125 64.625ZM57.125 57.125C57.125 57.6223 56.9275 58.0992 56.5758 58.4508C56.2242 58.8025 55.7473 59 55.25 59H32.75C32.2527 59 31.7758 58.8025 31.4242 58.4508C31.0726 58.0992 30.875 57.6223 30.875 57.125C30.875 56.6277 31.0726 56.1508 31.4242 55.7992C31.7758 55.4476 32.2527 55.25 32.75 55.25H55.25C55.7473 55.25 56.2242 55.4476 56.5758 55.7992C56.9275 56.1508 57.125 56.6277 57.125 57.125Z" fill="black"/>
</svg>
