<svg width="87" height="87" viewBox="0 0 87 87" fill="none" xmlns="http://www.w3.org/2000/svg">
<circle cx="43.5" cy="43.5" r="43.5" fill="white"/>
<path d="M66.75 27.5H55.5V25.625C55.5 24.1332 54.9074 22.7024 53.8525 21.6475C52.7976 20.5926 51.3668 20 49.875 20H38.625C37.1332 20 35.7024 20.5926 34.6475 21.6475C33.5926 22.7024 33 24.1332 33 25.625V27.5H21.75C20.7554 27.5 19.8016 27.8951 19.0983 28.5984C18.3951 29.3016 18 30.2554 18 31.25V57.5C18 58.4946 18.3951 59.4484 19.0983 60.1516C19.8016 60.8549 20.7554 61.25 21.75 61.25H66.75C67.7446 61.25 68.6984 60.8549 69.4016 60.1516C70.1049 59.4484 70.5 58.4946 70.5 57.5V31.25C70.5 30.2554 70.1049 29.3016 69.4016 28.5984C68.6984 27.8951 67.7446 27.5 66.75 27.5ZM36.75 25.625C36.75 25.1277 36.9475 24.6508 37.2992 24.2992C37.6508 23.9475 38.1277 23.75 38.625 23.75H49.875C50.3723 23.75 50.8492 23.9475 51.2008 24.2992C51.5525 24.6508 51.75 25.1277 51.75 25.625V27.5H36.75V25.625ZM66.75 31.25V38.75H59.25V36.875C59.25 36.3777 59.0525 35.9008 58.7008 35.5492C58.3492 35.1975 57.8723 35 57.375 35C56.8777 35 56.4008 35.1975 56.0492 35.5492C55.6975 35.9008 55.5 36.3777 55.5 36.875V38.75H33V36.875C33 36.3777 32.8025 35.9008 32.4508 35.5492C32.0992 35.1975 31.6223 35 31.125 35C30.6277 35 30.1508 35.1975 29.7992 35.5492C29.4475 35.9008 29.25 36.3777 29.25 36.875V38.75H21.75V31.25H66.75ZM66.75 57.5H21.75V42.5H29.25V44.375C29.25 44.8723 29.4475 45.3492 29.7992 45.7008C30.1508 46.0525 30.6277 46.25 31.125 46.25C31.6223 46.25 32.0992 46.0525 32.4508 45.7008C32.8025 45.3492 33 44.8723 33 44.375V42.5H55.5V44.375C55.5 44.8723 55.6975 45.3492 56.0492 45.7008C56.4008 46.0525 56.8777 46.25 57.375 46.25C57.8723 46.25 58.3492 46.0525 58.7008 45.7008C59.0525 45.3492 59.25 44.8723 59.25 44.375V42.5H66.75V57.5Z" fill="black"/>
</svg>
