<svg width="87" height="87" viewBox="0 0 87 87" fill="none" xmlns="http://www.w3.org/2000/svg">
<circle cx="43.5" cy="43.5" r="43.5" fill="white"/>
<path d="M73.5996 42.0396L67.6184 30.0724C67.398 29.632 67.0931 29.2392 66.7209 28.9166C66.3488 28.594 65.9167 28.3479 65.4495 28.1923C64.9822 28.0366 64.4888 27.9746 63.9976 28.0097C63.5063 28.0447 63.0268 28.1762 62.5863 28.3966L56.7574 31.3099L44.4785 28.0615C44.1635 27.9795 43.8327 27.9795 43.5176 28.0615L31.2387 31.3099L25.4098 28.3966C24.9694 28.1762 24.4898 28.0447 23.9986 28.0097C23.5073 27.9746 23.0139 28.0366 22.5467 28.1923C22.0794 28.3479 21.6473 28.594 21.2752 28.9166C20.903 29.2392 20.5981 29.632 20.3778 30.0724L14.3965 42.0373C14.1761 42.4777 14.0446 42.9572 14.0095 43.4485C13.9744 43.9398 14.0365 44.4331 14.1921 44.9004C14.3477 45.3677 14.5939 45.7997 14.9165 46.1719C15.2391 46.544 15.6318 46.849 16.0723 47.0693L22.4004 50.2357L35.4059 59.524C35.5975 59.6603 35.8129 59.7597 36.041 59.817L51.041 63.567C51.3552 63.6457 51.6843 63.6418 51.9965 63.5556C52.3087 63.4693 52.5932 63.3037 52.8223 63.0748L65.7293 50.1654L71.9215 47.0693C72.8105 46.6243 73.4863 45.8445 73.8006 44.9014C74.1148 43.9582 74.0417 42.9289 73.5973 42.0396H73.5996ZM60.7348 49.8607L52.6699 43.4013C52.3086 43.112 51.8531 42.9665 51.391 42.9929C50.9288 43.0193 50.4928 43.2157 50.1668 43.5443C45.9926 47.749 41.3403 47.217 38.3731 45.342L48.5074 35.4982H55.9629L62.3403 48.2506L60.7348 49.8607ZM23.7317 31.7482L28.5293 34.1435L22.5363 46.1084L17.7481 43.7154L23.7317 31.7482ZM50.9192 59.6693L37.2996 56.2662L25.7684 48.0302L32.3309 34.9052L43.9981 31.8138L46.2949 32.4209L35.7481 42.6584L35.7293 42.6795C35.3323 43.0765 35.0295 43.5576 34.8433 44.0873C34.657 44.6169 34.5921 45.1817 34.6533 45.7398C34.7145 46.2979 34.9002 46.8352 35.1968 47.3119C35.4934 47.7887 35.8932 48.1927 36.3668 48.4943C41.1856 51.5716 47.0004 51.0724 51.5801 47.3224L58.0606 52.5279L50.9192 59.6693ZM65.4504 46.106L59.4692 34.1529L64.2645 31.7482L70.2481 43.7154L65.4504 46.106ZM44.884 67.8256C44.7827 68.2308 44.549 68.5906 44.2199 68.8479C43.8909 69.1052 43.4853 69.2453 43.0676 69.2459C42.9135 69.2457 42.7601 69.2268 42.6106 69.1896L32.8442 66.7474C32.6157 66.6911 32.4002 66.5916 32.209 66.4545L26.0332 62.0435C25.6535 61.7454 25.4034 61.3122 25.335 60.8343C25.2667 60.3564 25.3853 59.8705 25.6662 59.4778C25.9471 59.0852 26.3686 58.816 26.843 58.7264C27.3174 58.6367 27.8081 58.7336 28.2129 58.9967L34.0981 63.2013L43.5293 65.5545C44.0116 65.6751 44.4263 65.9824 44.6821 66.4087C44.9379 66.8351 45.0139 67.3455 44.8934 67.8279L44.884 67.8256Z" fill="black"/>
</svg>
