<svg width="87" height="87" viewBox="0 0 87 87" fill="none" xmlns="http://www.w3.org/2000/svg">
<circle cx="43.5" cy="43.5" r="43.5" fill="white"/>
<path d="M46.0015 30.0056C46.0015 29.4753 46.2122 28.9667 46.5872 28.5917C46.9623 28.2167 47.4709 28.006 48.0014 28.006H70.0001C70.5305 28.006 71.0392 28.2167 71.4142 28.5917C71.7893 28.9667 72 29.4753 72 30.0056C72 30.5359 71.7893 31.0445 71.4142 31.4195C71.0392 31.7945 70.5305 32.0051 70.0001 32.0051H48.0014C47.4709 32.0051 46.9623 31.7945 46.5872 31.4195C46.2122 31.0445 46.0015 30.5359 46.0015 30.0056ZM70.0001 40.0034H48.0014C47.4709 40.0034 46.9623 40.2141 46.5872 40.5891C46.2122 40.964 46.0015 41.4726 46.0015 42.003C46.0015 42.5333 46.2122 43.0419 46.5872 43.4169C46.9623 43.7919 47.4709 44.0025 48.0014 44.0025H70.0001C70.5305 44.0025 71.0392 43.7919 71.4142 43.4169C71.7893 43.0419 72 42.5333 72 42.003C72 41.4726 71.7893 40.964 71.4142 40.5891C71.0392 40.2141 70.5305 40.0034 70.0001 40.0034ZM70.0001 52.0008H54.001C53.4706 52.0008 52.9619 52.2114 52.5869 52.5864C52.2118 52.9614 52.0011 53.47 52.0011 54.0003C52.0011 54.5306 52.2118 55.0392 52.5869 55.4142C52.9619 55.7892 53.4706 55.9999 54.001 55.9999H70.0001C70.5305 55.9999 71.0392 55.7892 71.4142 55.4142C71.7893 55.0392 72 54.5306 72 54.0003C72 53.47 71.7893 52.9614 71.4142 52.5864C71.0392 52.2114 70.5305 52.0008 70.0001 52.0008ZM45.939 57.4996C46.0043 57.7539 46.019 58.0187 45.982 58.2787C45.945 58.5388 45.8571 58.789 45.7234 59.015C45.5897 59.2411 45.4127 59.4386 45.2027 59.5963C44.9926 59.754 44.7535 59.8688 44.499 59.934C44.336 59.978 44.1679 59.9998 43.9991 59.999C43.5555 59.9992 43.1245 59.852 42.7738 59.5806C42.4231 59.3091 42.1726 58.9287 42.0617 58.4993C40.5218 52.5157 34.4771 48.0016 28 48.0016C21.5228 48.0016 15.4782 52.5132 13.9383 58.4993C13.8057 59.0131 13.4744 59.4531 13.0173 59.7227C12.5602 59.9922 12.0147 60.0691 11.5009 59.9365C10.9871 59.804 10.547 59.4727 10.2774 59.0157C10.0078 58.5587 9.93088 58.0133 10.0635 57.4996C11.4609 52.0733 15.5232 47.6792 20.6779 45.5022C18.6931 43.9737 17.2365 41.8623 16.5126 39.4643C15.7886 37.0663 15.8335 34.5018 16.641 32.1306C17.4484 29.7593 18.978 27.7003 21.0151 26.2422C23.0522 24.784 25.4947 24 28 24C30.5053 24 32.9478 24.784 34.9849 26.2422C37.022 27.7003 38.5515 29.7593 39.359 32.1306C40.1664 34.5018 40.2113 37.0663 39.4874 39.4643C38.7634 41.8623 37.3069 43.9737 35.3221 45.5022C40.4793 47.6792 44.5415 52.0733 45.939 57.4996ZM28.0025 44.0025C29.5846 44.0025 31.1313 43.5334 32.4468 42.6546C33.7623 41.7757 34.7876 40.5266 35.3931 39.0651C35.9986 37.6036 36.157 35.9954 35.8483 34.4439C35.5396 32.8924 34.7778 31.4672 33.659 30.3486C32.5403 29.2301 31.1149 28.4683 29.5631 28.1597C28.0113 27.8511 26.4029 28.0095 24.9412 28.6148C23.4794 29.2202 22.2301 30.2454 21.3511 31.5607C20.4721 32.876 20.0029 34.4224 20.0029 36.0043C20.0029 38.1255 20.8457 40.1599 22.3459 41.6599C23.8461 43.1598 25.8809 44.0025 28.0025 44.0025Z" fill="black"/>
</svg>
