<svg width="87" height="87" viewBox="0 0 87 87" fill="none" xmlns="http://www.w3.org/2000/svg">
<circle cx="43.5" cy="43.5" r="43.5" fill="white"/>
<path d="M69.9219 20.7677C69.2855 20.3642 68.552 20.1105 67.7851 20.0288C67.0182 19.9471 66.2413 20.0399 65.5222 20.299C61.357 21.7956 52.9466 24.3064 43.5 24.3064C34.0534 24.3064 25.64 21.7956 21.4689 20.299C20.7492 20.0411 19.9723 19.949 19.2054 20.0307C18.4385 20.1124 17.7047 20.3655 17.0676 20.768C16.4305 21.1705 15.9092 21.7103 15.549 22.3407C15.1887 22.9711 15.0003 23.6731 15 24.3859V39.6726C15 49.4965 17.8648 58.7639 23.0691 65.7618C28.4603 73.0145 35.7159 77 43.5 77C51.2841 77 58.5397 73.0063 63.9309 65.7618C69.1352 58.7694 72 49.502 72 39.6781V24.3859C71.9986 23.6722 71.8086 22.9696 71.4465 22.3391C71.0843 21.7086 70.561 21.1692 69.9219 20.7677ZM67.25 39.6808C67.25 48.6276 64.6791 57.0124 60.0152 63.2894C55.5353 69.3114 49.672 72.6281 43.5 72.6281C37.328 72.6281 31.4647 69.3114 26.9848 63.2866C22.3209 57.0042 19.75 48.6248 19.75 39.6781V24.3859C24.2358 25.9949 33.2816 28.692 43.5 28.692C53.7184 28.692 62.7672 25.9949 67.25 24.3859V39.6836V39.6808ZM61.9062 44.8532C62.3259 45.2894 62.5407 45.8616 62.5034 46.444C62.4661 47.0264 62.1798 47.5713 61.7073 47.9588C61.2349 48.3462 60.6152 48.5446 59.9844 48.5101C59.3536 48.4757 58.7634 48.2113 58.3438 47.7751C57.5481 46.9528 55.7164 46.3141 54.1875 46.3141C52.6586 46.3141 50.815 46.9555 50.0312 47.7751C49.6112 48.2113 49.0207 48.4755 48.3896 48.5097C47.7585 48.5439 47.1386 48.3452 46.6662 47.9574C46.1938 47.5696 45.9076 47.0243 45.8705 46.4417C45.8335 45.859 46.0487 45.2866 46.4688 44.8504C48.1639 43.1017 51.2603 41.9285 54.1875 41.9285C57.1147 41.9285 60.1992 43.1017 61.9062 44.8504V44.8532ZM32.8125 46.3141C31.2717 46.3141 29.44 46.9555 28.6562 47.7751C28.2362 48.2113 27.6457 48.4755 27.0146 48.5097C26.3835 48.5439 25.7636 48.3452 25.2912 47.9574C24.8188 47.5696 24.5326 47.0243 24.4955 46.4417C24.4585 45.859 24.6737 45.2866 25.0938 44.8504C26.8008 43.1017 29.8972 41.9285 32.8125 41.9285C35.7278 41.9285 38.8242 43.1017 40.5312 44.8504C40.9513 45.2866 41.1665 45.859 41.1295 46.4417C41.0924 47.0243 40.8062 47.5696 40.3338 47.9574C40.0999 48.1494 39.8273 48.297 39.5316 48.3918C39.2359 48.4866 38.9229 48.5266 38.6104 48.5097C37.9793 48.4755 37.3888 48.2113 36.9688 47.7751C36.185 46.9555 34.3533 46.3141 32.8125 46.3141ZM55.5086 58.7009C54.0344 60.3159 52.1959 61.614 50.1217 62.5045C48.0474 63.395 45.7875 63.8564 43.5 63.8564C41.2125 63.8564 38.9526 63.395 36.8783 62.5045C34.8041 61.614 32.9656 60.3159 31.4914 58.7009C31.2889 58.4818 31.135 58.2281 31.0387 57.9542C30.9424 57.6803 30.9054 57.3915 30.93 57.1044C30.9545 56.8173 31.04 56.5375 31.1817 56.2809C31.3234 56.0243 31.5184 55.796 31.7556 55.609C31.9929 55.422 32.2677 55.28 32.5643 55.191C32.861 55.1021 33.1738 55.068 33.4847 55.0906C33.7957 55.1133 34.0988 55.1922 34.3767 55.323C34.6546 55.4538 34.9018 55.6339 35.1044 55.8529C36.1323 56.986 37.4167 57.8972 38.8673 58.5224C40.3178 59.1477 41.8992 59.4717 43.5 59.4717C45.1008 59.4717 46.6822 59.1477 48.1327 58.5224C49.5833 57.8972 50.8677 56.986 51.8956 55.8529C52.0982 55.6339 52.3454 55.4538 52.6233 55.323C52.9012 55.1922 53.2043 55.1133 53.5153 55.0906C53.8262 55.068 54.139 55.1021 54.4357 55.191C54.7323 55.28 55.0071 55.422 55.2444 55.609C55.4816 55.796 55.6766 56.0243 55.8183 56.2809C55.96 56.5375 56.0455 56.8173 56.07 57.1044C56.0946 57.3915 56.0576 57.6803 55.9613 57.9542C55.865 58.2281 55.7111 58.4818 55.5086 58.7009Z" fill="black"/>
</svg>
