<svg width="66" height="66" viewBox="0 0 66 66" fill="none" xmlns="http://www.w3.org/2000/svg">
<path fill-rule="evenodd" clip-rule="evenodd" d="M32.8588 0C14.7125 0 0 14.7125 0 32.8588C0 51.0051 14.7125 65.7176 32.8588 65.7176C51.0051 65.7176 65.7176 51.0051 65.7176 32.8588C65.7176 14.7125 51.0051 0 32.8588 0ZM32.8597 5.47594C47.9583 5.47594 60.2421 17.7596 60.2421 32.8583C60.2421 47.9569 47.9583 60.2406 32.8597 60.2406C17.7611 60.2406 5.47739 47.9569 5.47739 32.8583C5.47739 17.7596 17.7611 5.47594 32.8597 5.47594ZM46.7864 25.0987C48.15 24.9344 49.4507 24.5729 50.6582 24.0362C49.7546 25.3889 48.6128 26.5773 47.293 27.5247C47.7201 37.0072 40.65 47.5796 28.1308 47.5796C24.3247 47.5796 20.7841 46.4651 17.7994 44.5511C21.3783 44.9728 24.9462 43.9788 27.7858 41.7553C24.8394 41.7006 22.3449 39.7537 21.4878 37.0757C22.5448 37.2783 23.5853 37.2181 24.5328 36.9607C21.2907 36.309 19.0508 33.3873 19.1247 30.2657C20.0338 30.7695 21.0716 31.0735 22.1751 31.1091C19.174 29.102 18.3224 25.137 20.0886 22.1085C23.4128 26.1857 28.3827 28.8692 33.9824 29.1512C32.9994 24.9344 36.1976 20.8736 40.5514 20.8736C42.4874 20.8736 44.2426 21.6923 45.4693 23.0039C47.0054 22.7027 48.4485 22.1414 49.7519 21.3692C49.2453 22.9437 48.1801 24.2635 46.7864 25.0987Z" fill="black"/>
</svg>
