<svg width="160" height="160" viewBox="0 0 160 160" fill="none" xmlns="http://www.w3.org/2000/svg">
<circle cx="80" cy="80" r="80" fill="#00FF26"/>
<path d="M87.6973 52.7531V63.392C87.6973 63.6668 87.4879 63.8762 87.2131 63.8762H85.5119C85.3418 63.8762 85.1978 63.7846 85.1193 63.6799L80.2383 57.0977V63.4051C80.2383 63.6799 80.0289 63.8893 79.7541 63.8893H78.0529C77.7781 63.8893 77.5688 63.6799 77.5688 63.4051V52.7662C77.5688 52.4914 77.7781 52.282 78.0529 52.282H79.741C79.885 52.282 80.0551 52.3606 80.1336 52.4914L85.0146 59.0736V52.7662C85.0146 52.4914 85.224 52.282 85.4988 52.282H87.2C87.4748 52.269 87.6973 52.4914 87.6973 52.74V52.7531ZM75.4357 52.269H73.7346C73.4598 52.269 73.2504 52.4783 73.2504 52.7531V63.392C73.2504 63.6668 73.4598 63.8762 73.7346 63.8762H75.4357C75.7106 63.8762 75.9199 63.6668 75.9199 63.392V52.7531C75.9199 52.5045 75.7106 52.269 75.4357 52.269ZM71.3268 61.1805H66.6682V52.7531C66.6682 52.4783 66.4588 52.269 66.184 52.269H64.4828C64.208 52.269 63.9986 52.4783 63.9986 52.7531V63.392C63.9986 63.5229 64.0379 63.6275 64.1295 63.7191C64.2211 63.7977 64.3258 63.85 64.4567 63.85H71.2875C71.5623 63.85 71.7717 63.6406 71.7717 63.3658V61.6646C71.7717 61.416 71.5623 61.1805 71.3137 61.1805H71.3268ZM96.6742 52.269H89.8303C89.5816 52.269 89.3461 52.4783 89.3461 52.7531V63.392C89.3461 63.6406 89.5555 63.8762 89.8303 63.8762H96.6611C96.9359 63.8762 97.1453 63.6668 97.1453 63.392V61.6777C97.1453 61.4029 96.9359 61.1936 96.6611 61.1936H92.0156V59.4139H96.6611C96.9359 59.4139 97.1453 59.2045 97.1453 58.9297V57.2154C97.1453 56.9406 96.9359 56.7313 96.6611 56.7313H92.0156V54.9385H96.6611C96.9359 54.9385 97.1453 54.7291 97.1453 54.4543V52.7531C97.1322 52.5045 96.9228 52.269 96.6611 52.269H96.6742ZM114 39.2223V81.8824C113.987 88.5824 108.491 94.0131 101.778 94H59.1176C52.4176 93.9869 46.9869 88.4777 47 81.7777V39.1176C47.0131 32.4176 52.5223 26.9869 59.2223 27H101.882C108.582 27.0131 114.013 32.5092 114 39.2223ZM104.787 57.5557C104.787 46.642 93.8346 37.7567 80.3953 37.7567C66.9561 37.7567 56.0031 46.642 56.0031 57.5557C56.0031 67.3309 64.6791 75.5357 76.4041 77.093C79.2568 77.708 78.9297 78.7549 78.2885 82.6021C78.1838 83.2172 77.7912 85.0099 80.3953 83.9238C82.9994 82.8377 94.4365 75.6535 99.5662 69.7648C103.099 65.8783 104.787 61.9395 104.787 57.5818V57.5557Z" fill="white"/>
<path d="M37.84 99.76H45.24V101.9H37.84V99.76ZM40.02 104.02H43.52V105.98H40.02V104.02ZM45.82 112.46H48.8V114.08H45.82V112.46ZM52.06 112.46H55.12V114.08H52.06V112.46ZM40.02 108.1H43.52V110.06H40.02V108.1ZM38.76 100.9H40.72V113.46H38.76V100.9ZM42.28 100.88H44.28V117.8H42.28V100.88ZM50.88 108.9H52.82V117.8H50.88V108.9ZM45.18 109.5H46.92V114.8H45.18V109.5ZM53.98 109.5H55.78V114.78H53.98V109.5ZM37.5 112.96C38.2467 112.853 39.1267 112.72 40.14 112.56C41.1533 112.387 42.1867 112.207 43.24 112.02L43.4 114.08C42.4533 114.28 41.5 114.473 40.54 114.66C39.5933 114.847 38.7067 115.02 37.88 115.18L37.5 112.96ZM48 108.92H49.92V112.46C49.92 113.207 49.8467 113.92 49.7 114.6C49.5533 115.28 49.2467 115.893 48.78 116.44C48.3267 117 47.6267 117.48 46.68 117.88C46.6133 117.733 46.5133 117.56 46.38 117.36C46.2467 117.16 46.1 116.96 45.94 116.76C45.7933 116.573 45.6533 116.427 45.52 116.32C46.2533 116.013 46.7933 115.66 47.14 115.26C47.4867 114.847 47.7133 114.4 47.82 113.92C47.94 113.44 48 112.947 48 112.44V108.92ZM44.64 107C45.2933 106.96 46.06 106.907 46.94 106.84C47.82 106.773 48.7333 106.707 49.68 106.64L49.7 108.18C48.8467 108.273 48.0067 108.36 47.18 108.44C46.3533 108.52 45.58 108.593 44.86 108.66L44.64 107ZM44.9 102.94L45.88 101.56C46.3333 101.92 46.7933 102.333 47.26 102.8C47.74 103.267 48.0933 103.687 48.32 104.06L47.28 105.62C47.0667 105.233 46.7267 104.787 46.26 104.28C45.8067 103.773 45.3533 103.327 44.9 102.94ZM48.48 105.7L49.86 105.3C50.1133 105.767 50.3267 106.28 50.5 106.84C50.6733 107.387 50.78 107.853 50.82 108.24L49.34 108.72C49.3133 108.32 49.22 107.84 49.06 107.28C48.9 106.72 48.7067 106.193 48.48 105.7ZM47.28 99.02L49.22 99.6C48.8733 100.227 48.5067 100.873 48.12 101.54C47.7467 102.207 47.4067 102.773 47.1 103.24L45.82 102.74C46.0067 102.393 46.1933 102 46.38 101.56C46.5667 101.12 46.74 100.68 46.9 100.24C47.06 99.7867 47.1867 99.38 47.28 99.02ZM48.76 101.6L50.52 102.22C50.1467 102.833 49.74 103.487 49.3 104.18C48.8733 104.873 48.44 105.54 48 106.18C47.5733 106.807 47.1667 107.36 46.78 107.84L45.56 107.3C45.9333 106.793 46.32 106.213 46.72 105.56C47.12 104.893 47.5 104.213 47.86 103.52C48.22 102.813 48.52 102.173 48.76 101.6ZM50.46 106.94C51.1133 106.9 51.88 106.847 52.76 106.78C53.64 106.713 54.5533 106.647 55.5 106.58L55.52 108.1C54.68 108.193 53.8467 108.287 53.02 108.38C52.2067 108.46 51.4467 108.54 50.74 108.62L50.46 106.94ZM50.28 102.9L51.22 101.46C51.7 101.807 52.18 102.213 52.66 102.68C53.1533 103.147 53.5133 103.573 53.74 103.96L52.74 105.58C52.5267 105.18 52.18 104.733 51.7 104.24C51.2333 103.733 50.76 103.287 50.28 102.9ZM54.02 105.72L55.46 105.26C55.74 105.78 55.9867 106.347 56.2 106.96C56.4133 107.573 56.54 108.1 56.58 108.54L55.04 109.08C55 108.627 54.8867 108.093 54.7 107.48C54.5133 106.853 54.2867 106.267 54.02 105.72ZM52.74 99.02L54.72 99.62C54.36 100.247 53.9867 100.9 53.6 101.58C53.2133 102.247 52.86 102.807 52.54 103.26L51.2 102.74C51.3867 102.393 51.5733 102.007 51.76 101.58C51.96 101.14 52.14 100.7 52.3 100.26C52.4733 99.8067 52.62 99.3933 52.74 99.02ZM54.26 101.54L56.1 102.2C55.7267 102.813 55.32 103.467 54.88 104.16C54.4533 104.84 54.0267 105.5 53.6 106.14C53.1733 106.78 52.76 107.333 52.36 107.8L51.1 107.24C51.4733 106.733 51.8533 106.147 52.24 105.48C52.64 104.813 53.0133 104.133 53.36 103.44C53.7067 102.747 54.0067 102.113 54.26 101.54ZM68.24 110.1H77.18V117.72H74.84V112.14H70.48V117.78H68.24V110.1ZM69.54 114.9H75.58V116.98H69.54V114.9ZM70.58 99L72.9 99.4C72.5533 100.213 72.1333 101.02 71.64 101.82C71.16 102.62 70.6 103.393 69.96 104.14C69.3333 104.887 68.6067 105.587 67.78 106.24C67.6733 106.08 67.5267 105.893 67.34 105.68C67.1533 105.467 66.96 105.273 66.76 105.1C66.56 104.913 66.3667 104.767 66.18 104.66C66.9267 104.127 67.58 103.54 68.14 102.9C68.7133 102.26 69.2 101.607 69.6 100.94C70 100.273 70.3267 99.6267 70.58 99ZM70.84 100.78H75.84V102.84H69.82L70.84 100.78ZM75.2 100.78H75.66L76.06 100.7L77.52 101.52C76.9333 103.053 76.14 104.427 75.14 105.64C74.1533 106.853 73.04 107.9 71.8 108.78C70.56 109.647 69.2667 110.34 67.92 110.86C67.8267 110.673 67.6933 110.46 67.52 110.22C67.36 109.98 67.18 109.747 66.98 109.52C66.7933 109.28 66.62 109.093 66.46 108.96C67.7667 108.52 69 107.933 70.16 107.2C71.3333 106.453 72.3533 105.58 73.22 104.58C74.1 103.567 74.76 102.44 75.2 101.2V100.78ZM70.56 102.64C71.1067 103.48 71.8067 104.287 72.66 105.06C73.5133 105.833 74.46 106.527 75.5 107.14C76.5533 107.74 77.64 108.227 78.76 108.6C78.5867 108.747 78.4 108.94 78.2 109.18C78 109.407 77.8133 109.64 77.64 109.88C77.48 110.12 77.34 110.333 77.22 110.52C76.0733 110.067 74.96 109.487 73.88 108.78C72.8133 108.06 71.8267 107.253 70.92 106.36C70.0267 105.453 69.2533 104.487 68.6 103.46L70.56 102.64ZM62.6 99.02L64.68 99.8C64.4133 100.307 64.1333 100.833 63.84 101.38C63.5467 101.927 63.26 102.447 62.98 102.94C62.7 103.433 62.4333 103.86 62.18 104.22L60.58 103.54C60.82 103.127 61.0667 102.66 61.32 102.14C61.5733 101.62 61.8133 101.087 62.04 100.54C62.2667 99.9933 62.4533 99.4867 62.6 99.02ZM64.9 101.4L66.86 102.28C66.38 103.04 65.8533 103.84 65.28 104.68C64.7067 105.507 64.1333 106.307 63.56 107.08C62.9867 107.84 62.4467 108.507 61.94 109.08L60.54 108.3C60.9133 107.847 61.3 107.34 61.7 106.78C62.1 106.207 62.4933 105.613 62.88 105C63.28 104.373 63.6533 103.753 64 103.14C64.3467 102.513 64.6467 101.933 64.9 101.4ZM59.52 103.76L60.68 102.12C61.0267 102.427 61.38 102.767 61.74 103.14C62.1133 103.5 62.4533 103.867 62.76 104.24C63.08 104.6 63.32 104.927 63.48 105.22L62.26 107.08C62.1 106.76 61.8667 106.407 61.56 106.02C61.2667 105.633 60.94 105.24 60.58 104.84C60.22 104.44 59.8667 104.08 59.52 103.76ZM64.32 106.16L65.9 105.5C66.1533 105.953 66.4 106.44 66.64 106.96C66.88 107.467 67.0867 107.96 67.26 108.44C67.4467 108.92 67.58 109.353 67.66 109.74L65.96 110.5C65.8933 110.113 65.7733 109.673 65.6 109.18C65.44 108.673 65.2467 108.16 65.02 107.64C64.7933 107.107 64.56 106.613 64.32 106.16ZM59.5 107.82C60.42 107.793 61.52 107.753 62.8 107.7C64.08 107.647 65.38 107.593 66.7 107.54L66.68 109.44C65.44 109.533 64.2067 109.62 62.98 109.7C61.7667 109.78 60.6733 109.853 59.7 109.92L59.5 107.82ZM64.74 111.14L66.42 110.6C66.6733 111.173 66.9133 111.8 67.14 112.48C67.38 113.147 67.56 113.733 67.68 114.24L65.9 114.88C65.8067 114.373 65.6467 113.773 65.42 113.08C65.1933 112.373 64.9667 111.727 64.74 111.14ZM60.38 110.76L62.36 111.12C62.2533 112.08 62.0933 113.027 61.88 113.96C61.6667 114.893 61.42 115.68 61.14 116.32C61.0067 116.227 60.8267 116.12 60.6 116C60.3733 115.893 60.14 115.787 59.9 115.68C59.6733 115.573 59.4733 115.493 59.3 115.44C59.5933 114.84 59.8267 114.127 60 113.3C60.1733 112.46 60.3 111.613 60.38 110.76ZM62.62 108.88H64.72V117.8H62.62V108.88ZM95.1 100.78L96.9 99.56C97.26 99.8667 97.6267 100.213 98 100.6C98.3867 100.973 98.7467 101.353 99.08 101.74C99.4267 102.113 99.6933 102.46 99.88 102.78L97.94 104.12C97.78 103.8 97.54 103.447 97.22 103.06C96.9133 102.66 96.5733 102.267 96.2 101.88C95.8267 101.48 95.46 101.113 95.1 100.78ZM82 104.7H100.04V106.96H82V104.7ZM81.62 110.34C82.42 110.22 83.3533 110.073 84.42 109.9C85.4867 109.727 86.6133 109.533 87.8 109.32C89 109.107 90.18 108.9 91.34 108.7L91.5 110.86C90.4333 111.087 89.3467 111.313 88.24 111.54C87.1467 111.767 86.08 111.987 85.04 112.2C84.0133 112.4 83.0667 112.587 82.2 112.76L81.62 110.34ZM85.78 101.46H88.2V114.98C88.2 115.633 88.12 116.14 87.96 116.5C87.8133 116.86 87.54 117.133 87.14 117.32C86.74 117.507 86.24 117.627 85.64 117.68C85.04 117.747 84.3267 117.78 83.5 117.78C83.4733 117.553 83.4133 117.293 83.32 117C83.2267 116.707 83.12 116.413 83 116.12C82.8933 115.827 82.78 115.573 82.66 115.36C83.22 115.387 83.76 115.4 84.28 115.4C84.8 115.4 85.1467 115.393 85.32 115.38C85.4933 115.38 85.6133 115.353 85.68 115.3C85.7467 115.233 85.78 115.12 85.78 114.96V101.46ZM89.88 99.14L91.52 101.18C90.6533 101.447 89.7133 101.687 88.7 101.9C87.6867 102.1 86.6533 102.28 85.6 102.44C84.56 102.6 83.5533 102.733 82.58 102.84C82.54 102.56 82.4467 102.22 82.3 101.82C82.1667 101.42 82.0333 101.087 81.9 100.82C82.8333 100.7 83.7867 100.553 84.76 100.38C85.7333 100.207 86.66 100.013 87.54 99.8C88.42 99.5867 89.2 99.3667 89.88 99.14ZM91.86 99.16H94.36C94.3333 100.773 94.3733 102.367 94.48 103.94C94.6 105.513 94.7733 106.993 95 108.38C95.2267 109.753 95.4933 110.973 95.8 112.04C96.1067 113.093 96.4333 113.92 96.78 114.52C97.1267 115.12 97.4867 115.42 97.86 115.42C98.0733 115.42 98.2333 115.16 98.34 114.64C98.46 114.12 98.5467 113.267 98.6 112.08C98.8533 112.347 99.1667 112.613 99.54 112.88C99.9133 113.133 100.26 113.327 100.58 113.46C100.447 114.633 100.267 115.533 100.04 116.16C99.8133 116.8 99.5 117.24 99.1 117.48C98.7133 117.733 98.22 117.86 97.62 117.86C96.9267 117.86 96.3 117.607 95.74 117.1C95.1933 116.607 94.7067 115.913 94.28 115.02C93.8667 114.127 93.5067 113.087 93.2 111.9C92.9067 110.7 92.66 109.407 92.46 108.02C92.26 106.62 92.1133 105.167 92.02 103.66C91.9267 102.153 91.8733 100.653 91.86 99.16ZM97.3 107.62L99.4 108.54C98.72 109.78 97.9133 110.933 96.98 112C96.0467 113.067 95.0267 114.033 93.92 114.9C92.8133 115.753 91.6533 116.5 90.44 117.14C90.2667 116.847 90.0267 116.52 89.72 116.16C89.4267 115.8 89.1267 115.487 88.82 115.22C89.9667 114.687 91.0733 114.04 92.14 113.28C93.22 112.52 94.2 111.66 95.08 110.7C95.96 109.74 96.7 108.713 97.3 107.62ZM110.68 103.02H114.2V104.74H110.68V103.02ZM116.7 103.02H120.24V104.74H116.7V103.02ZM119.54 100.08H121.82V115.02C121.82 115.66 121.74 116.153 121.58 116.5C121.433 116.86 121.153 117.133 120.74 117.32C120.327 117.507 119.793 117.62 119.14 117.66C118.5 117.713 117.707 117.74 116.76 117.74C116.733 117.527 116.68 117.28 116.6 117C116.52 116.72 116.427 116.44 116.32 116.16C116.213 115.88 116.1 115.64 115.98 115.44C116.393 115.467 116.807 115.487 117.22 115.5C117.633 115.5 118 115.5 118.32 115.5C118.653 115.487 118.887 115.48 119.02 115.48C119.207 115.48 119.34 115.447 119.42 115.38C119.5 115.3 119.54 115.167 119.54 114.98V100.08ZM109.28 100.08H111.5V117.74H109.28V100.08ZM110.8 100.08H114.96V107.74H110.8V105.94H113.14V101.9H110.8V100.08ZM120.64 100.08V101.9H117.74V105.94H120.64V107.74H115.84V100.08H120.64ZM107.2 99.04L109.42 99.7C109.047 100.86 108.593 102.033 108.06 103.22C107.54 104.407 106.967 105.533 106.34 106.6C105.713 107.653 105.06 108.58 104.38 109.38C104.327 109.193 104.233 108.933 104.1 108.6C103.967 108.267 103.82 107.933 103.66 107.6C103.5 107.267 103.36 106.993 103.24 106.78C103.773 106.153 104.287 105.427 104.78 104.6C105.287 103.773 105.747 102.887 106.16 101.94C106.573 100.98 106.92 100.013 107.2 99.04ZM105.6 104.54L107.82 102.32L107.88 102.36V117.78H105.6V104.54Z" fill="white"/>
</svg>
