<svg width="87" height="81" viewBox="0 0 87 81" fill="none" xmlns="http://www.w3.org/2000/svg">
<path d="M48.4108 33.7192C48.4108 32.7188 48.1171 31.741 47.5668 30.9092C47.0165 30.0774 46.2343 29.4291 45.3192 29.0463C44.4042 28.6635 43.3972 28.5633 42.4258 28.7585C41.4543 28.9537 40.562 29.4354 39.8616 30.1427C39.1612 30.8501 38.6842 31.7513 38.491 32.7325C38.2977 33.7136 38.3969 34.7306 38.776 35.6548C39.155 36.579 39.7969 37.3689 40.6205 37.9247C41.444 38.4804 42.4123 38.7771 43.4028 38.7771C44.731 38.7771 46.0048 38.2442 46.944 37.2957C47.8831 36.3471 48.4108 35.0606 48.4108 33.7192ZM61.7655 38.7771C60.775 38.7771 59.8067 38.4804 58.9832 37.9247C58.1596 37.3689 57.5177 36.579 57.1387 35.6548C56.7596 34.7306 56.6605 33.7136 56.8537 32.7325C57.0469 31.7513 57.5239 30.8501 58.2243 30.1427C58.9247 29.4354 59.817 28.9537 60.7885 28.7585C61.7599 28.5633 62.7669 28.6635 63.6819 29.0463C64.597 29.4291 65.3792 30.0774 65.9295 30.9092C66.4798 31.741 66.7735 32.7188 66.7735 33.7192C66.7735 35.0606 66.2459 36.3471 65.3067 37.2957C64.3675 38.2442 63.0937 38.7771 61.7655 38.7771ZM25.0401 38.7771C24.0496 38.7771 23.0813 38.4804 22.2578 37.9247C21.4342 37.3689 20.7923 36.579 20.4133 35.6548C20.0342 34.7306 19.935 33.7136 20.1283 32.7325C20.3215 31.7513 20.7985 30.8501 21.4989 30.1427C22.1992 29.4354 23.0916 28.9537 24.063 28.7585C25.0345 28.5633 26.0414 28.6635 26.9565 29.0463C27.8716 29.4291 28.6538 30.0774 29.2041 30.9092C29.7544 31.741 30.0481 32.7188 30.0481 33.7192C30.0481 35.0606 29.5204 36.3471 28.5813 37.2957C27.6421 38.2442 26.3683 38.7771 25.0401 38.7771ZM0 6.74384V60.6946C0 62.4831 0.703506 64.1985 1.95576 65.4632C3.208 66.7279 4.90642 67.4384 6.67736 67.4384H62.1828L75.7879 79.3076L75.8255 79.3371C77.0272 80.3662 78.5526 80.9295 80.1282 80.9261C81.1091 80.9239 82.0776 80.7052 82.966 80.2854C84.1184 79.7475 85.0932 78.886 85.774 77.8038C86.4548 76.7216 86.8129 75.4644 86.8055 74.1822V6.74384C86.8055 4.95526 86.102 3.23994 84.8498 1.97522C83.5975 0.710509 81.8991 0 80.1282 0H6.67736C4.90642 0 3.208 0.710509 1.95576 1.97522C0.703506 3.23994 0 4.95526 0 6.74384ZM6.67736 6.74384H80.1282V74.1822L65.6175 61.5375C65.0142 61.0002 64.2391 60.7008 63.4348 60.6946H6.67736V6.74384Z" fill="black"/>
</svg>
